<svg xmlns="http://www.w3.org/2000/svg" width="109.911" height="131.118" viewBox="0 0 109.911 131.118"><g transform="translate(0)"><rect width="93.923" height="101.177" transform="translate(7.676 0.821)" fill="#19130d"/><path d="M-550.261,218.7V93.41a1.9,1.9,0,0,0-.065-.5,1.664,1.664,0,0,0-1.711-1.661h-95.068a1.612,1.612,0,0,0-1.575,1.04,1.628,1.628,0,0,0-.583,1.309V219.976a1.614,1.614,0,0,0,1.065,1.585,1.593,1.593,0,0,0,1.475.809c24.665-.242,49.332-.431,74-.793q10.44-.153,20.878-.367A1.8,1.8,0,0,0-550.261,218.7Zm-75.709-.084-19.741.194V94.8h91.9V217.7C-577.863,218.182-601.917,218.378-625.97,218.615Z" transform="translate(654.59 -91.252)" fill="#9b592a"/><path d="M-550.666,518.385h-93.35a2.354,2.354,0,0,0-1.885,3.678,3.611,3.611,0,0,0-.824,1.47,3.728,3.728,0,0,0,.33,2.684,1.985,1.985,0,0,0,.589.71c-.073.888-.009,1.812-.008,2.642q.006,2.916.036,5.832c.019,1.907,0,3.824.083,5.729.093,2.03.868,3.981,2.966,4.654a9.049,9.049,0,0,0,2.815.245l3.175-.016,5.976-.029,48-.234,24.093-.118,2.988-.015a8.318,8.318,0,0,0,2.963-.322c2.154-.823,2.534-2.958,2.841-4.986a42.1,42.1,0,0,0,.235-11.39,45.819,45.819,0,0,0-1.053-5.753c-.01-.038-.023-.072-.033-.109h.065C-547.659,523.058-547.654,518.385-550.666,518.385Zm-6.513,8.573c-.046-.089-.1-.176-.148-.263h.438A2.048,2.048,0,0,0-557.178,526.958Z" transform="translate(652.741 -417.96)" fill="#9b592a"/><path d="M-549.033,511.318c-23.007,1.48-46.07,1.016-69.1.642-6.566-.106-13.132-.2-19.7-.247a3.159,3.159,0,0,0-3.078,3.182,3.191,3.191,0,0,0,3.182,3.079c23.044.153,46.09.988,69.136.449,6.56-.154,13.118-.422,19.667-.844a3.182,3.182,0,0,0,3.079-3.182A3.174,3.174,0,0,0-549.033,511.318Z" transform="translate(648.208 -412.55)" fill="#8f542c"/><path d="M-559.706,506.666H-660.394c-2.826,0-2.831,4.838,0,4.838h100.688C-556.88,511.5-556.875,506.666-559.706,506.666Z" transform="translate(664.727 -408.996)" fill="#824821"/><path d="M-483.706,109.388a11.044,11.044,0,0,0-1.882-3.906,14.466,14.466,0,0,0-1.024-2,14.152,14.152,0,0,0-7.9-6.014,23.942,23.942,0,0,0-10.875-.7,12.73,12.73,0,0,0-8.275,5.947,13.263,13.263,0,0,0-1.26,1.384,16.752,16.752,0,0,0-3.168,7.157,16.557,16.557,0,0,0,.143,8.45,13.02,13.02,0,0,0,3.917,5.775c4.023,3.405,9.339,4.421,14.492,3.959a18.437,18.437,0,0,0,7.507-1.988,10.174,10.174,0,0,0,1.24-.826,14.84,14.84,0,0,0,3.922-2.552,11.553,11.553,0,0,0,3.354-6.813A19.99,19.99,0,0,0-483.706,109.388Z" transform="translate(554.626 -95.221)" fill="#9b592a"/><path d="M-476.532,119.611a9.083,9.083,0,0,0-1.547-3.211,11.915,11.915,0,0,0-.842-1.647,11.633,11.633,0,0,0-6.5-4.944,19.684,19.684,0,0,0-8.94-.576,10.464,10.464,0,0,0-6.8,4.888,10.937,10.937,0,0,0-1.036,1.138,13.771,13.771,0,0,0-2.6,5.884,13.611,13.611,0,0,0,.118,6.946,10.7,10.7,0,0,0,3.22,4.747c3.307,2.8,7.677,3.634,11.913,3.255a15.157,15.157,0,0,0,6.171-1.634,8.353,8.353,0,0,0,1.019-.679,12.2,12.2,0,0,0,3.224-2.1,9.5,9.5,0,0,0,2.757-5.6A16.431,16.431,0,0,0-476.532,119.611Z" transform="translate(544.393 -104.802)" fill="#ecc180"/><ellipse cx="1.616" cy="1.533" rx="1.616" ry="1.533" transform="translate(52.544 17.38)" fill="#19130d"/><path d="M-442.5,135.86a1.654,1.654,0,0,0-.161,1.1c.347.111.635-.273.795-.6l2.855-5.82c.514-1.047,1.029-2.1,1.478-3.173.228-.548.838-1.776-.226-1.089a5.943,5.943,0,0,0-1.59,2.519q-.8,1.605-1.533,3.24Q-441.734,133.931-442.5,135.86Z" transform="translate(496.596 -117.889)" fill="#19130d"/><path d="M-473.535,163.25a1.29,1.29,0,0,0,.858-.058c.029-.278-.308-.432-.579-.5l-4.856-1.2c-.874-.216-1.749-.432-2.635-.594-.451-.082-1.477-.341-.788.346a4.594,4.594,0,0,0,2.158.784q1.341.338,2.694.625Q-475.116,162.988-473.535,163.25Z" transform="translate(526.474 -144.437)" fill="#19130d"/><path d="M-425.228,331.2c-.774-1.346-1.469-2.733-2.092-4.121-.373-.83-5.842-13.976-2.494-12.713,1.323.5,3.879,5.81,4.271,6.894a18.358,18.358,0,0,0,2.33,4.907c.43.437.724.587.923.569A.473.473,0,0,0-422,326.5a2.976,2.976,0,0,0,.069-1.26s-1.014-5.991-1.736-9.431-2.882-3.662-4.5-4.016-1.853-1-1.857-1.431,3.554-.31,3.554-.31a6.749,6.749,0,0,1-2.66-1.995c-.765-.941-.184-1.423.848-1.155,1.964.509,4.4,1.153,6.412,1.705,2.23.614,2.943-.113,4.916,1.106,1.108.685,5.258,8.054,5.258,8.054l-1.645-5.3c-2.193-7.072-1.492-7.486-.936-8.079s2,4.278,4.081,8.482,3.154,14.27,3.947,17.8,26.1,31.548,26.1,31.548a10.762,10.762,0,0,1,1.977,10.2c-1.9,6.043-8.043,4.045-8.043,4.045s-27.907-33.233-32.993-37.664A29.506,29.506,0,0,1-425.228,331.2Z" transform="translate(487.563 -254.235)" fill="#e6b391"/><path d="M-426.172,337.872l-10.819-6.092a1.064,1.064,0,1,0-1.018,1.868l10.819,6.092A1.064,1.064,0,1,0-426.172,337.872Z" transform="translate(493.446 -275.107)" fill="#f8f4ef"/><path d="M-591.928,341.552a9.943,9.943,0,0,1-6.426-2.608l1.321-1.5a7.809,7.809,0,0,0,5.375,2.1,13.164,13.164,0,0,0,4.211-1.2c.284-.115.577-.234.868-.348,1.93-.755,4.793-1.633,7.369-.551a11.705,11.705,0,0,1,1.209.62,3.939,3.939,0,0,0,1.887.712,4.029,4.029,0,0,0,1.614-.619,10.4,10.4,0,0,1,4.273-1.567,10.214,10.214,0,0,1,4.412,1c.413.161.8.314,1.195.448a3.165,3.165,0,0,0,1.257.236,3.908,3.908,0,0,0,1.3-.512c.19-.1.39-.205.6-.3l.14-.884a5.043,5.043,0,0,1,1.718.6l2.407,1.373-2.729.48a4.49,4.49,0,0,0-1.2.5,5.506,5.506,0,0,1-2.033.732,4.977,4.977,0,0,1-2.1-.334c-.432-.148-.86-.316-1.274-.478a8.614,8.614,0,0,0-3.555-.864,8.777,8.777,0,0,0-3.439,1.324,5.6,5.6,0,0,1-2.512.865,5.577,5.577,0,0,1-2.934-.968,10.071,10.071,0,0,0-1-.518c-1.905-.8-4.26-.058-5.865.57-.28.109-.567.226-.845.339a14.85,14.85,0,0,1-4.868,1.348C-591.685,341.55-591.807,341.552-591.928,341.552Z" transform="translate(615.146 -279.649)" fill="#fcfbfa"/><path d="M-671.8,373.926h-.12v-1h.12Z" transform="translate(671.92 -307.083)" fill="#fcfbfa"/></g></svg>