<?xml version="1.0" encoding="utf-8"?>
<!-- Generator: Adobe Illustrator 26.0.0, SVG Export Plug-In . SVG Version: 6.00 Build 0)  -->
<svg version="1.1" id="Layer_1" xmlns="http://www.w3.org/2000/svg" xmlns:xlink="http://www.w3.org/1999/xlink" x="0px" y="0px"
	 viewBox="0 0 121 124" style="enable-background:new 0 0 121 124;" xml:space="preserve">
<style type="text/css">
	.st0{opacity:0.35;fill:#D8C2A4;enable-background:new    ;}
	.st1{fill:#E1C4A6;}
	.st2{fill:#F6DBB6;}
	.st3{opacity:0.57;fill:none;stroke:#D5B086;stroke-width:2;stroke-miterlimit:10;enable-background:new    ;}
	.st4{opacity:0.57;fill:none;stroke:#F6E4D1;stroke-width:2;stroke-miterlimit:10;enable-background:new    ;}
	.st5{fill:#7C4C24;}
	.st6{fill:#75431F;}
	.st7{fill:#523520;}
	.st8{fill:#6A3414;}
	.st9{fill:#9F5E34;}
	.st10{fill:#7A6F6A;}
	.st11{fill:#7F4719;}
	.st12{fill:#894D1E;}
	.st13{fill:#E6B391;}
	.st14{fill:#A38D64;}
	.st15{fill:#C3AF8B;}
	.st16{fill:#98824D;}
	.st17{fill:#6B422A;}
	.st18{clip-path:url(#SVGID_00000005240833933011406240000012666316459670926263_);}
	.st19{fill:#827857;}
	.st20{fill:#403925;}
	.st21{fill:none;stroke:#E4AB85;stroke-width:0.5;stroke-miterlimit:10;}
	.st22{fill:#A77752;}
	.st23{fill:#935734;}
	.st24{fill:#F99762;}
	.st25{fill:#A4744E;}
	.st26{fill:#B68557;}
	.st27{fill:#F0736D;}
	.st28{opacity:0.85;fill:#CBE5EB;enable-background:new    ;}
	.st29{opacity:0.9;fill:#CBE5EB;enable-background:new    ;}
	
		.st30{opacity:0.12;fill:none;stroke:#FFFFFF;stroke-width:3;stroke-linecap:round;stroke-miterlimit:10;enable-background:new    ;}
	.st31{fill:#19130D;}
	.st32{fill:#9B592A;}
	.st33{fill:#8F542C;}
	.st34{fill:#824821;}
	.st35{fill:#ECC180;}
	.st36{fill:#F8F4EF;}
	.st37{fill:none;stroke:#FCFBFA;stroke-width:2;stroke-miterlimit:10;}
	.st38{fill:none;stroke:#FCFBFA;stroke-miterlimit:10;}
	.st39{clip-path:url(#SVGID_00000026146402691344394310000004489595697636177306_);}
	.st40{fill:#836953;}
	.st41{fill:#725947;}
	.st42{clip-path:url(#SVGID_00000021824666937923666510000003735854503310149805_);}
	.st43{fill:#D2EDF3;}
	.st44{fill:#F5A844;}
	.st45{fill:#97C3CF;}
	.st46{fill:#755D4B;}
	.st47{fill:#EAC1A2;}
	.st48{fill:#604940;}
	.st49{fill:none;}
	.st50{clip-path:url(#SVGID_00000109739336283282923840000011071322343025971860_);}
	.st51{clip-path:url(#SVGID_00000136409895044340430680000015640748180573014428_);}
	.st52{fill:#E0B294;}
	.st53{fill:#ECBC99;}
	.st54{fill:#E5997C;}
	.st55{fill:#354952;}
	.st56{fill:#E6E6E6;}
	.st57{fill:#1C262B;}
	.st58{fill:#D8D8D8;}
	.st59{fill:#F7D2A6;}
	.st60{opacity:0.67;}
	.st61{clip-path:url(#SVGID_00000006709689071712390010000003432681385518117033_);}
	.st62{clip-path:url(#SVGID_00000133488406916990776160000010185007994347801773_);}
	.st63{opacity:0.2;}
	.st64{clip-path:url(#SVGID_00000054252380045933238650000000806867557266011044_);}
	.st65{opacity:0.27;}
	.st66{clip-path:url(#SVGID_00000057852828708866967320000005347702105851085466_);}
	.st67{fill:none;stroke:#64492F;stroke-width:2;stroke-miterlimit:10;}
	.st68{clip-path:url(#SVGID_00000175306446157601667800000000541338886332428962_);}
	.st69{clip-path:url(#SVGID_00000062181472026498826960000003118039862623727029_);}
	.st70{clip-path:url(#SVGID_00000140003054738867903850000016484247408303671215_);}
	.st71{clip-path:url(#SVGID_00000056401786345898873980000016019994288044246963_);}
	.st72{clip-path:url(#SVGID_00000183932321673225498710000009800834268127743374_);}
	.st73{clip-path:url(#SVGID_00000008138201175451259670000015532155719983490947_);}
	.st74{clip-path:url(#SVGID_00000145050081126750628140000014188664625811560609_);}
	.st75{clip-path:url(#SVGID_00000119114840662766993620000000783022726712677272_);}
	.st76{clip-path:url(#SVGID_00000144298301452740383450000004727238624692362129_);}
	.st77{clip-path:url(#SVGID_00000110470348063549783680000007653764799861238932_);}
	.st78{clip-path:url(#SVGID_00000051352946852413551090000012499689429264323739_);}
	.st79{clip-path:url(#SVGID_00000126294958993421429900000015604537515032034222_);}
	.st80{fill:#85B7C6;}
</style>
<g id="Group_2665" transform="translate(-6860.741 20853.445)">
	<g id="Group_2662" transform="translate(6860.741 -20852)">
		<g>
			<defs>
				<rect id="SVGID_00000053511006732632781240000015716182649168030355_" x="32" y="4.76" width="53.58" height="113.04"/>
			</defs>
			<clipPath id="SVGID_00000152985035538094285040000009019333751487492262_">
				<use xlink:href="#SVGID_00000053511006732632781240000015716182649168030355_"  style="overflow:visible;"/>
			</clipPath>
			<g id="Group_2661" style="clip-path:url(#SVGID_00000152985035538094285040000009019333751487492262_);">
				<path id="Path_1335" class="st40" d="M60.13,70.41c-0.03-2.57-1.01-3.29-2.94-3.21c-1.93-0.08-2.91,0.64-2.94,3.21
					c-0.04,3.5,0,7,0.03,10.49c0.07,6.93,0.22,13.86,0.46,20.78c0.13,3.82,0.29,7.63,0.48,11.45c0.04,0.75,0.16,1.65,0.77,1.96
					c0.66,0.18,1.35,0.18,2.01,0.01c0.13,0.05,0.27,0.05,0.39-0.01c0.61-0.31,0.73-1.21,0.77-1.96c0.19-3.81,0.35-7.63,0.48-11.45
					c0.24-6.92,0.4-13.85,0.46-20.78C60.13,77.4,60.17,73.9,60.13,70.41"/>
				<path id="Path_1336" class="st40" d="M45.66,63.25c-0.03-2.57-1.01-3.29-2.94-3.21c-1.93-0.08-2.91,0.64-2.94,3.21
					c-0.04,3.5,0,7,0.03,10.49c0.07,6.93,0.22,13.86,0.46,20.78c0.13,3.82,0.29,7.63,0.48,11.45c0.04,0.75,0.16,1.65,0.77,1.96
					c0.66,0.18,1.35,0.18,2.01,0.01c0.13,0.05,0.27,0.05,0.39-0.01c0.61-0.31,0.73-1.21,0.77-1.96c0.19-3.81,0.35-7.63,0.48-11.45
					c0.24-6.92,0.4-13.85,0.46-20.78C45.66,70.24,45.71,66.74,45.66,63.25"/>
				<path id="Path_1337" class="st40" d="M74.86,63.25c-0.03-2.57-1.01-3.29-2.94-3.21c-1.93-0.08-2.91,0.64-2.94,3.21
					c-0.04,3.5,0,7,0.03,10.49c0.07,6.93,0.22,13.86,0.46,20.78c0.13,3.82,0.29,7.63,0.48,11.45c0.04,0.75,0.16,1.65,0.77,1.96
					c0.66,0.18,1.35,0.18,2.01,0.01c0.13,0.05,0.27,0.05,0.39-0.01c0.61-0.31,0.73-1.21,0.77-1.96c0.19-3.81,0.35-7.63,0.48-11.45
					c0.24-6.92,0.4-13.85,0.46-20.78C74.86,70.24,74.9,66.74,74.86,63.25"/>
				<path id="Path_1338" class="st41" d="M82.22,62.17c0.03-1.17-0.42-2.31-1.26-3.14c-0.55-0.5-1.21-0.86-1.92-1.07
					c-1.16-0.36-2.39-0.42-3.58-0.17c-1.9-0.03-3.8-0.25-5.66-0.65c-1.73-0.43-3.49-1.08-5.24-0.76c-0.72,0.17-1.44,0.4-2.12,0.68
					c-0.07,0-0.14,0-0.21-0.01c-1.61-0.09-3.21-0.66-4.82-0.45c-0.1,0.01-0.2,0.03-0.3,0.05c-0.1-0.02-0.2-0.04-0.3-0.05
					c-1.6-0.21-3.2,0.36-4.82,0.45c-0.07,0-0.14,0.01-0.21,0.01c-0.69-0.28-1.4-0.51-2.12-0.68c-1.75-0.32-3.51,0.33-5.24,0.76
					c-1.86,0.4-3.75,0.62-5.66,0.65c-1.19-0.25-2.42-0.2-3.58,0.17c-0.71,0.21-1.37,0.58-1.92,1.07c-0.84,0.84-1.3,2-1.26,3.19
					c0,0.1,0,0.2,0.01,0.29c0.04,0.61,0.19,1.21,0.45,1.77c0.89,1.7,2.41,2.97,4.24,3.54c0.81,0.27,1.63,0.46,2.47,0.59
					c4.83,1.81,10.32,2.08,15.56,2.17c0.79,0.01,1.59,0.02,2.38,0c0.79,0.02,1.59,0.01,2.38,0c6.97-0.12,14.37-0.55,20.1-4.52
					c0.92-0.58,1.69-1.38,2.24-2.32c0.04,0,0.09-0.01,0.13-0.01c0.12-0.36,0.19-0.73,0.22-1.1c0-0.01,0-0.02,0-0.02
					C82.21,62.47,82.22,62.32,82.22,62.17"/>
				<path id="Path_1339" class="st40" d="M80.39,40.69c0.1-0.88-0.01-1.77-0.33-2.6l-0.15,0.34c-0.1-0.33-0.34-0.61-0.65-0.76
					c-0.85-0.41-1.75-0.73-2.67-0.94c-1-0.53-2.05-0.93-3.15-1.18c-1.4-0.29-2.83-0.46-4.26-0.52c-2.43-0.16-4.87-0.33-7.31-0.28
					c-1.46,0.03-2.92,0.14-4.38,0.28c-1.46-0.14-2.92-0.25-4.38-0.28c-2.44-0.05-4.88,0.12-7.31,0.28
					c-1.43,0.06-2.86,0.23-4.26,0.52c-1.1,0.26-2.16,0.66-3.15,1.19c-0.92,0.21-1.82,0.53-2.67,0.94c-0.4,0.21-0.67,0.61-0.73,1.06
					l-0.04-0.01v0.27c-0.03,0.33-0.03,0.66,0,0.99v11.38c0,0.07,0,0.15,0,0.23v1.1c-0.01,0.44-0.02,0.89-0.02,1.33
					c0.01,1.05-0.05,2.1,0.02,3.15v0.74c-0.05,0.52-0.05,1.04,0,1.56c0,0,0,0.01,0,0.01v0.03l0.01,0.04
					c0.04,0.39,0.12,0.79,0.23,1.17c-0.04,0.45,0.05,0.9,0.25,1.3c0.26,0.4,0.6,0.74,1,1.01c1.01,1.12,2.34,1.92,3.8,2.3
					c5.69,1.26,11.51,1.87,17.34,1.81c2.74,0.01,5.47-0.11,8.2-0.38l0.08-0.08c2.87-0.31,4.56-0.65,4.56-0.65l-0.01-0.06
					c0.01,0.02,0.03,0.04,0.04,0.06c2.58-0.37,5.06-1.22,7.32-2.52c0.7-0.35,1.31-0.86,1.76-1.49c0.38-0.61,0.18-1.34,0.29-2.05
					c0.02-0.15,0.04-0.3,0.05-0.46c0.08-0.47,0.11-0.96,0.07-1.44c0.01-0.13,0.02-0.27,0.03-0.4c0.08-1.21,0.11-2.43,0.06-3.65
					c0-0.3,0-0.6-0.01-0.9l0,0C80.02,53.13,80.22,42.23,80.39,40.69"/>
				<path id="Path_1340" class="st41" d="M80.39,39.01c0,3.21-10.17,5.81-22.71,5.81s-22.71-2.6-22.71-5.81s10.17-5.81,22.71-5.81
					S80.39,35.8,80.39,39.01"/>
				<path id="Path_1341" class="st40" d="M78.09,39.01c0,1.86-9.1,3.36-20.34,3.36s-20.34-1.51-20.34-3.36s9.1-3.36,20.34-3.36
					S78.09,37.15,78.09,39.01"/>
				<path id="Path_1342" class="st40" d="M77.16,38.79c0.03-0.2,0.01-0.41-0.08-0.6c-0.3-0.74-1.48-1.31-2.75-1.71
					c-3.43-0.91-6.97-1.33-10.52-1.27c-2.04-0.04-4.08-0.03-6.12-0.01c-2.04-0.02-4.08-0.03-6.12,0.01
					c-3.55-0.06-7.09,0.37-10.52,1.27c-1.27,0.4-2.45,0.98-2.75,1.71c-0.08,0.19-0.11,0.4-0.08,0.6c-0.02,0.15-0.02,0.31,0.02,0.46
					c0.03,0.48,0.26,0.92,0.65,1.21c0.56,0.32,1.17,0.53,1.8,0.62c0.75,0.15,1.53,0.26,2.32,0.35c0.79,0.21,1.58,0.38,2.26,0.53
					c3.97,0.83,8.03,1.22,12.09,1.16h0.34h0.34c4.06,0.06,8.12-0.33,12.09-1.16c0.68-0.15,1.46-0.32,2.26-0.53
					c0.79-0.09,1.57-0.2,2.32-0.35c0.63-0.09,1.24-0.31,1.8-0.62c0.39-0.29,0.62-0.73,0.65-1.21C77.19,39.1,77.19,38.95,77.16,38.79
					"/>
				<path id="Path_1343" class="st40" d="M78.09,39.01c0,2.36-9.1,4.28-20.34,4.28s-20.34-1.92-20.34-4.28s9.1-4.28,20.34-4.28
					S78.09,36.64,78.09,39.01"/>
			</g>
		</g>
	</g>
	<g id="Group_2664" transform="translate(6866.33 -20822.031)">
		<g>
			<defs>
				<path id="SVGID_00000155122713022878351400000015734670021482259616_" d="M52.1,4.78c-2.1-0.02-4.21-0.03-6.31,0.01
					c-3.67-0.07-7.33,0.41-10.85,1.42c-1.31,0.45-2.53,1.09-2.84,1.91c-0.08,0.21-0.11,0.45-0.08,0.67
					C31.99,8.95,32,9.13,32.04,9.29c0.02,0.52,0.27,1.01,0.67,1.35c0.57,0.35,1.2,0.59,1.85,0.7c0.78,0.17,1.58,0.29,2.4,0.4
					c0.82,0.23,1.62,0.43,2.33,0.59c4.09,0.93,8.28,1.36,12.47,1.3h0.35h0.35c4.19,0.06,8.38-0.37,12.47-1.3
					c0.7-0.16,1.51-0.36,2.33-0.59c0.82-0.1,1.62-0.22,2.39-0.4c0.66-0.11,1.29-0.35,1.85-0.7c0.4-0.33,0.65-0.82,0.67-1.35
					c0.04-0.17,0.04-0.34,0.02-0.51c0.03-0.23,0.01-0.46-0.08-0.67c-0.31-0.82-1.53-1.46-2.84-1.91c-3.53-1.01-7.18-1.49-10.85-1.42
					c-1.03-0.02-2.06-0.03-3.08-0.03C54.25,4.76,53.18,4.76,52.1,4.78"/>
			</defs>
			<clipPath id="SVGID_00000121981378244128235360000004796883317942668698_">
				<use xlink:href="#SVGID_00000155122713022878351400000015734670021482259616_"  style="overflow:visible;"/>
			</clipPath>
			<g id="Group_2663" style="clip-path:url(#SVGID_00000121981378244128235360000004796883317942668698_);">
				<path id="Path_1344" class="st43" d="M49.76,20.19c1.42,0.98,2.75,2.08,3.98,3.29c0.16,0.19,0.36,0.33,0.59,0.4
					c0.53,0.1,0.93-0.55,1-1.14c-0.02-0.58,0.05-1.17,0.21-1.73c-2.82-0.53-4.99-2.86-7.32-4.64c-0.77-0.59-6.73-4.71-6.37-2.33
					c0.19,1.26,2.68,2.71,3.56,3.32C46.83,18.36,48.33,19.21,49.76,20.19"/>
				<path id="Path_1345" class="st44" d="M45.42,9.17c0.59-0.61,1.35-1.03,2.18-1.2c0.62-0.01,1.23,0.14,1.78,0.42
					c4.66,1.98,8.97,4.7,12.76,8.06l-8.08,7.37c-3-2.58-6.05-5.1-9.14-7.54c-0.78-0.62-3.84-2.27-3.64-3.47
					C41.46,11.73,44.6,9.86,45.42,9.17"/>
				<path id="Path_1346" class="st43" d="M53.59,18.89c1.55,0.71,3.03,1.56,4.43,2.52c0.18,0.16,0.41,0.25,0.65,0.28
					c0.54,0.01,0.83-0.71,0.81-1.3c-0.11-0.57-0.13-1.16-0.06-1.74c-2.86-0.01-5.36-1.92-7.93-3.26c-0.85-0.44-7.36-3.43-6.64-1.15
					c0.38,1.21,3.05,2.19,4.03,2.64C50.42,17.61,52.03,18.17,53.59,18.89"/>
				<path id="Path_1347" class="st45" d="M47.59,8.63c0.48-0.71,1.17-1.26,1.97-1.58c0.6-0.12,1.23-0.08,1.82,0.09
					c4.89,1.1,9.56,3.01,13.82,5.65l-6.83,8.73c-3.35-2.01-6.74-3.94-10.17-5.79c-0.86-0.47-4.14-1.54-4.12-2.76
					C44.08,11.86,46.89,9.46,47.59,8.63"/>
			</g>
		</g>
	</g>
	<path id="Path_1349" class="st46" d="M6899.99-20806.87c0.08,2.56,0.16,6.29,0.21,8.89c0.07,2.22,0.12,4.45-0.03,6.67
		c-0.04,0.74-0.1,1.48-0.19,2.22h-0.06c-0.29-2.96-0.36-5.93-0.21-8.89c0.05-2.61,0.13-6.31,0.21-8.89H6899.99"/>
	<path id="Path_1350" class="st40" d="M6924.11-20838.25c-0.58,0.78-1.37,1.38-2.27,1.74c-0.21,0.11-0.44,0.18-0.68,0.21
		c-0.24,0.03-0.48-0.05-0.66-0.21l0.47,0.27c-0.18-0.1-0.38-0.16-0.58-0.18c-0.13,0-0.25,0.03-0.37,0.07
		c-0.46,0.17-0.93,0.29-1.41,0.38c-0.09,0.01-0.17,0.01-0.26-0.01c-0.21-0.08-0.38-0.23-0.48-0.43c-0.1-0.13-0.16-0.28-0.19-0.45
		c0-0.18,0.08-0.36,0.21-0.48c0.13-0.12,0.28-0.22,0.45-0.3c0.45-0.23,0.9-0.45,1.37-0.65c0.14-0.08,0.31-0.11,0.47-0.1
		c0.1,0.03,0.21,0.07,0.3,0.12c0.27,0.1,0.56,0.15,0.84,0.14c0.15,0.01,0.3,0.01,0.44-0.02c0.22-0.07,0.43-0.18,0.63-0.31
		c0.29-0.17,0.62-0.25,0.96-0.24c0.34,0.02,0.64,0.21,0.81,0.51l-0.19-0.03"/>
	<path id="Path_1351" class="st46" d="M6905.8-20805.8c0.08,2.56,0.16,6.29,0.21,8.89c0.07,2.22,0.12,4.45-0.03,6.67
		c-0.04,0.74-0.1,1.48-0.19,2.22h-0.06c-0.29-2.96-0.36-5.93-0.21-8.89c0.05-2.61,0.13-6.31,0.21-8.89H6905.8"/>
	<path id="Path_1352" class="st46" d="M6913.45-20805.8c0.08,2.56,0.16,6.29,0.21,8.89c0.07,2.22,0.12,4.45-0.03,6.67
		c-0.04,0.74-0.1,1.48-0.19,2.22h-0.06c-0.29-2.96-0.36-5.93-0.21-8.89c0.05-2.61,0.13-6.31,0.21-8.89H6913.45"/>
	<path id="Path_1353" class="st46" d="M6925.68-20805.8c0.08,2.56,0.16,6.29,0.21,8.89c0.07,2.22,0.12,4.45-0.03,6.67
		c-0.04,0.74-0.1,1.48-0.19,2.22h-0.06c-0.29-2.96-0.36-5.93-0.21-8.89c0.05-2.61,0.13-6.31,0.21-8.89H6925.68"/>
	<path id="Path_1354" class="st46" d="M6919.56-20805.8c0.08,2.56,0.16,6.29,0.21,8.89c0.07,2.22,0.12,4.45-0.03,6.67
		c-0.04,0.74-0.1,1.48-0.19,2.22h-0.06c-0.29-2.96-0.36-5.93-0.21-8.89c0.05-2.61,0.13-6.31,0.21-8.89H6919.56"/>
	<path id="Path_1355" class="st46" d="M6937.91-20807.79c0.08,2.56,0.16,6.29,0.21,8.89c0.07,2.22,0.12,4.45-0.03,6.67
		c-0.04,0.74-0.1,1.48-0.19,2.22h-0.06c-0.29-2.96-0.36-5.93-0.21-8.89c0.05-2.61,0.13-6.31,0.21-8.89H6937.91"/>
	<path id="Path_1364" class="st47" d="M6925.65-20841.58c0.85-1.49,2.45-2.4,4.17-2.37c2.88,0.12-0.37,1.66-0.37,1.66
		L6925.65-20841.58z"/>
	<path id="Path_1356" class="st46" d="M6932.1-20806.72c0.08,2.56,0.16,6.29,0.21,8.89c0.07,2.22,0.12,4.45-0.03,6.67
		c-0.04,0.74-0.1,1.48-0.19,2.22h-0.06c-0.29-2.96-0.36-5.93-0.21-8.89c0.05-2.61,0.13-6.31,0.21-8.89H6932.1"/>
	<path id="h" class="st47" d="M6936.27-20844.4c-1.23,0.13-7.6,0.56-7.6,0.56l5.01,5.19c0,0-5.91,1.19-6.93,1.78
		c-1.51,0.89-1.42,2.34-0.04,2.4c0.35,0.02,6.19-1.04,7.91-1.29c5.53-0.79,7.87-2.71,7.87-2.71l7.29-3.27l-1.73-6.96l-8,4.53
		C6938.8-20844.33,6937.53-20844.41,6936.27-20844.4"/>
	<path id="Path_1358" class="st47" d="M6920.86-20836.7c1.08-0.46,2.13-0.99,3.15-1.59c0.84-0.36,1.7-0.65,2.59-0.88
		c0.57-0.19,1.15-0.33,1.74-0.41c0.86-0.14,1.74-0.05,2.55,0.26c1.55,0.61,1.83,1.12,1.83,1.12l2.98-1.94
		c-0.1-0.36-1.03-3.47-2.99-3.08l-2.86-0.14c-0.59-0.05-1.17,0.11-1.65,0.45c-0.79,0.46-1.87,0.94-2.27,1.16
		c-0.45,0.25-2.47,1.18-3.2,1.56c-0.21,0.13-0.42,0.28-0.6,0.45c-1.38,1.04-2.85,1.96-4.4,2.72
		C6917.72-20837.02,6918.43-20835.97,6920.86-20836.7"/>
	<path id="Path_1359" class="st48" d="M6933.21-20842.28c1.05,3.17-5.39,10.52-16.01,17.2c-10.62,6.68-20.66,9.79-22.44,6.96
		c-1.78-2.82,5.25-10.75,16.01-17.2C6922.34-20842.24,6932.21-20845.31,6933.21-20842.28"/>
	<path id="Path_1360" class="st41" d="M6933.52-20841.51c1.05,3.17-5.39,10.52-16.01,17.2c-10.62,6.68-20.66,9.79-22.44,6.96
		c-1.78-2.82,5.25-10.75,16.01-17.2C6922.65-20841.48,6932.52-20844.55,6933.52-20841.51"/>
	<path id="Path_1361" class="st40" d="M6926.72-20837.31c1.77,1.49-3.76,7.3-11.15,11.94c-7.39,4.65-14.37,6.82-15.6,4.87
		s3.8-7.24,11.15-11.95C6918.4-20837.11,6924.04-20839.56,6926.72-20837.31"/>
	<path id="Path_1362" class="st41" d="M6917.43-20837.92c1.84-1.38,13.46-6.57,15.9-3.97c0.53,0.57-0.33,1.88-1.58,3.19
		c-1.68,1.75-4.05,3.48-4.69,3.39c-0.83-0.12,0.93-1.66-0.61-2.45c-1.25-0.71-2.72-0.93-4.13-0.61c-1.29,0.59-2.62,1.1-3.98,1.53
		C6916.57-20836.78,6917.31-20837.83,6917.43-20837.92"/>
	<path id="h-2" class="st47" d="M6936.27-20844.4c-1.23,0.13-4.15,0.51-4.15,0.51l3.72,3.11c-2.58,2.41-3.25,2.57-4.1,2.65
		c-0.38,0.08-0.76,0.13-1.14,0.15c-1.35,0.07-2.67,0.45-3.84,1.12c-1.51,0.89-1.42,2.34-0.04,2.4c0.35,0.02,6.19-1.04,7.91-1.29
		c5.53-0.79,7.87-2.71,7.87-2.71l7.29-3.27l-1.73-6.96l-8,4.53C6938.8-20844.33,6937.53-20844.41,6936.27-20844.4"/>
	<rect id="Rectangle_520" x="6892.74" y="-20847.24" class="st49" width="53.58" height="113.04"/>
</g>
</svg>
