<?xml version="1.0" encoding="utf-8"?>
<!-- Generator: Adobe Illustrator 26.0.0, SVG Export Plug-In . SVG Version: 6.00 Build 0)  -->
<svg version="1.1" id="Layer_1" xmlns="http://www.w3.org/2000/svg" xmlns:xlink="http://www.w3.org/1999/xlink" x="0px" y="0px"
	 viewBox="0 0 97 124" style="enable-background:new 0 0 97 124;" xml:space="preserve">
<style type="text/css">
	.st0{opacity:0.35;fill:#D8C2A4;enable-background:new    ;}
	.st1{fill:#E1C4A6;}
	.st2{fill:#F6DBB6;}
	.st3{opacity:0.57;fill:none;stroke:#D5B086;stroke-width:2;stroke-miterlimit:10;enable-background:new    ;}
	.st4{opacity:0.57;fill:none;stroke:#F6E4D1;stroke-width:2;stroke-miterlimit:10;enable-background:new    ;}
	.st5{fill:#7C4C24;}
	.st6{fill:#75431F;}
	.st7{fill:#523520;}
	.st8{fill:#6A3414;}
	.st9{fill:#9F5E34;}
	.st10{fill:#7A6F6A;}
	.st11{fill:#7F4719;}
	.st12{fill:#894D1E;}
	.st13{fill:#E6B391;}
	.st14{fill:#A38D64;}
	.st15{fill:#C3AF8B;}
	.st16{fill:#98824D;}
	.st17{fill:#6B422A;}
	.st18{clip-path:url(#SVGID_00000150091194221006766810000000854699794591809668_);}
	.st19{fill:#827857;}
	.st20{fill:#403925;}
	.st21{fill:none;stroke:#E4AB85;stroke-width:0.5;stroke-miterlimit:10;}
	.st22{fill:#A77752;}
	.st23{fill:#935734;}
	.st24{fill:#F99762;}
	.st25{fill:#A4744E;}
	.st26{fill:#B68557;}
	.st27{fill:#F0736D;}
	.st28{opacity:0.85;fill:#CBE5EB;enable-background:new    ;}
	.st29{opacity:0.9;fill:#CBE5EB;enable-background:new    ;}
	
		.st30{opacity:0.12;fill:none;stroke:#FFFFFF;stroke-width:3;stroke-linecap:round;stroke-miterlimit:10;enable-background:new    ;}
	.st31{fill:#19130D;}
	.st32{fill:#9B592A;}
	.st33{fill:#8F542C;}
	.st34{fill:#824821;}
	.st35{fill:#ECC180;}
	.st36{fill:#F8F4EF;}
	.st37{fill:none;stroke:#FCFBFA;stroke-width:2;stroke-miterlimit:10;}
	.st38{fill:none;stroke:#FCFBFA;stroke-miterlimit:10;}
	.st39{clip-path:url(#SVGID_00000094615616775610398190000001790337391494927749_);}
	.st40{fill:#836953;}
	.st41{fill:#725947;}
	.st42{clip-path:url(#SVGID_00000134237101143334962910000013099937801795720858_);}
	.st43{fill:#D2EDF3;}
	.st44{fill:#F5A844;}
	.st45{fill:#97C3CF;}
	.st46{fill:#755D4B;}
	.st47{fill:#EAC1A2;}
	.st48{fill:#604940;}
	.st49{fill:none;}
	.st50{clip-path:url(#SVGID_00000098926312300295172140000009117056589096933008_);}
	.st51{clip-path:url(#SVGID_00000033332532254796248360000001266171783873994640_);}
	.st52{fill:#E0B294;}
	.st53{fill:#ECBC99;}
	.st54{fill:#E5997C;}
	.st55{fill:#354952;}
	.st56{fill:#E6E6E6;}
	.st57{fill:#1C262B;}
	.st58{fill:#D8D8D8;}
	.st59{fill:#F7D2A6;}
	.st60{opacity:0.67;}
	.st61{clip-path:url(#SVGID_00000031902817122923303360000007486656254962077372_);}
	.st62{clip-path:url(#SVGID_00000138575493684831404710000005734081974959651994_);}
	.st63{opacity:0.2;}
	.st64{clip-path:url(#SVGID_00000052075838429332098810000012346833792985877416_);}
	.st65{opacity:0.27;}
	.st66{clip-path:url(#SVGID_00000139280453500578830900000016306112087472761747_);}
	.st67{fill:none;stroke:#64492F;stroke-width:2;stroke-miterlimit:10;}
	.st68{clip-path:url(#SVGID_00000081632597900702100800000001761760389313667004_);}
	.st69{clip-path:url(#SVGID_00000159440071208912396950000002246705251097630633_);}
	.st70{clip-path:url(#SVGID_00000097476459621918956050000016344987255054764446_);}
	.st71{clip-path:url(#SVGID_00000103248534614487328980000014300421819282321335_);}
	.st72{clip-path:url(#SVGID_00000178168858601862391300000009193210043907818396_);}
	.st73{clip-path:url(#SVGID_00000129922871038367873840000013791149483093400244_);}
	.st74{clip-path:url(#SVGID_00000113330627243824296920000002983445364627042726_);}
	.st75{clip-path:url(#SVGID_00000029747868669177265510000006537007119485452458_);}
	.st76{clip-path:url(#SVGID_00000034085577376771546680000001533817917769068216_);}
	.st77{clip-path:url(#SVGID_00000113333424992903923700000011283029121429403039_);}
	.st78{clip-path:url(#SVGID_00000149354915733969787440000016446979762061532863_);}
	.st79{clip-path:url(#SVGID_00000001641786948617492300000008373645345402835331_);}
	.st80{fill:#85B7C6;}
</style>
<g id="Group_2668" transform="translate(-80 -166.809)">
	<ellipse id="Ellipse_205" class="st0" cx="128.56" cy="281.55" rx="45.81" ry="4.63"/>
	<path id="Path_840" class="st1" d="M164.56,213.33c-0.46-0.49-1.02-0.87-1.65-1.13c-0.83-0.33-1.68-0.58-2.55-0.76
		c-2.21-0.53-4.45-1.05-6.76-1.39c-3.08-0.54-6.21-0.8-9.34-0.78c-1.95-0.04-3.9-0.09-5.84,0c-3.02,0.13-6.02,0.58-9.04,0.64
		c-1.46,0.03-2.91-0.04-4.37,0.01c-0.97,0.03-1.94,0.11-2.91,0.24c-1.71,0.23-3.4,0.62-5.04,1.15c-0.8,0.26-1.59,0.56-2.37,0.89
		c-0.66,0.18-1.29,0.46-1.87,0.82c-0.16,0.09-0.31,0.2-0.45,0.33c0.01,0.01,0.03,0.02,0.04,0.03c-0.46,0.62,0.66,1.09,1.48,1.48
		c1.21,0.58,2.41,1.17,3.62,1.75c0.85,0.44,1.73,0.81,2.64,1.11c1.01,0.29,2.03,0.51,3.06,0.66l5.71,0.98
		c1.44,0.28,2.89,0.46,4.35,0.55c1.39,0.06,2.79-0.05,4.18-0.1c4.82-0.18,9.77,0.34,14.41-0.43c4.81-0.8,8.65-2.89,12.29-4.91
		c0.28-0.16,0.58-0.33,0.65-0.55C164.86,213.71,164.73,213.51,164.56,213.33z"/>
	<g id="Group_2319" transform="translate(109.383 210.713)">
		<path id="Path_841" class="st2" d="M2.92,2.83v43.48c-0.16,0.97,0.56,1.98,0.49,2.96c-0.07,0.96-1.01,1.92-0.51,2.74
			c0.12,0.21,0.33,0.36,0.44,0.57c0.41,0.82-0.76,1.9-0.19,2.62c0.11,0.1,0.21,0.22,0.3,0.34c0.06,0.16,0.08,0.33,0.05,0.49
			c-0.08,1-0.08,2.01-0.08,3.02l0.01,7.2c0,2.52,3.1,4.28,5.41,5.3c2.35,0.93,4.82,1.49,7.34,1.65c2.48,0.26,4.97,0.42,7.46,0.58
			c9.64,0.62,19.88,1.12,28.37-3.5c2.13-1.16,4.34-3.15,3.97-5.55c-0.18-2.01-0.22-4.03-0.11-6.04l-0.01-0.68
			c0-0.64,0.54-1.38,0.26-1.96c-0.18-0.37-0.57-0.72-0.4-1.09c0.06-0.11,0.14-0.21,0.23-0.3c0.27-0.41,0.16-0.97-0.25-1.25
			c-0.08-0.05-0.17-0.09-0.26-0.12c-0.24-0.91,0.39-1.82,0.49-2.76c0.01-0.13,0-0.29-0.12-0.34c-0.09-0.03-0.2,0.01-0.28-0.03
			c-0.05-0.04-0.09-0.09-0.1-0.15c-0.12-0.42-0.08-0.88,0.12-1.27c0.22-0.29,0.39-0.62,0.51-0.97c0.06-0.36-0.27-0.81-0.6-0.65V2.81
			c-3.54,1.2-7.17,2.09-10.86,2.66c-2.32,0.24-4.65,0.36-6.98,0.34C25.91,5.92,14.2,5.84,2.92,2.83z"/>
		<path id="Path_842" class="st3" d="M3.33,50.27c1.87,1.37,4,2.35,6.26,2.89c15.18,4.35,31.37,3.5,46.01-2.39"/>
		<path id="Path_843" class="st4" d="M3.33,49.49c1.87,1.37,4,2.35,6.26,2.89c15.18,4.35,31.37,3.5,46.01-2.39"/>
		<path id="Path_844" class="st3" d="M3.33,53.48c1.87,1.37,4,2.35,6.26,2.89c15.18,4.35,31.37,3.5,46.01-2.39"/>
		<path id="Path_845" class="st4" d="M3.33,52.7c1.87,1.37,4,2.35,6.26,2.89c15.18,4.35,31.37,3.5,46.01-2.39"/>
		<path id="Path_846" class="st3" d="M3.33,56.68c1.87,1.37,4,2.35,6.26,2.89c15.18,4.35,31.37,3.5,46.01-2.39"/>
		<path id="Path_847" class="st4" d="M3.33,55.9c1.87,1.37,4,2.35,6.26,2.89c15.18,4.34,31.37,3.5,46.01-2.39"/>
		<path id="Path_848" class="st3" d="M2.95,47.07c1.87,1.37,4,2.35,6.26,2.89c15.18,4.34,31.37,3.5,46.01-2.39"/>
		<path id="Path_849" class="st4" d="M2.95,46.29c1.87,1.37,4,2.35,6.26,2.89c15.18,4.34,31.37,3.5,46.01-2.39"/>
	</g>
	<g id="Group_2320" transform="translate(107.05 182.102)">
		<path id="Path_850" class="st5" d="M4.36,30.99c-1.48-1.28-3.98-4.61,3.62-8.53c0,0,11.24-7.02,22.18-9.51
			c0,0,19.25-5.75,22.09-4.07c0,0,6.01,1.47,3.45,4.61c0,0-11.28,13.24-49.77,17.96C5.36,31.53,4.79,31.36,4.36,30.99z"/>
		<path id="Path_851" class="st6" d="M24.07,17.46c-1.69,0.7-3.16,1.82-4.29,3.26c-0.15,0.17-0.22,0.4-0.17,0.62
			c0.09,0.23,0.38,0.31,0.62,0.35c2.51,0.35,5.02-0.44,7.42-1.22c3.67-1.19,7.47-2.46,10.32-5.07c0.31-0.28,0.62-0.7,0.43-1.07
			c-0.18-0.35-0.67-0.35-1.06-0.3c-2.12,0.28-2.28,0.26-4.4,0.61C29.89,15.26,26.92,16.2,24.07,17.46z"/>
		<path id="Path_852" class="st7" d="M12.43,24.86l1.83-0.46c0.31-0.08,0.71-0.32,0.57-0.61c-0.07-0.14-0.24-0.2-0.36-0.31
			c-0.15-0.19-0.21-0.42-0.18-0.66c0.01-3.51,0.82-6.98,2.35-10.14c2.13-4.4,6.91-7.47,11.65-8.34c1.28-0.26,2.59-0.3,3.88-0.14
			c3.06,0.44,5.67,2.37,8.14,4.24c0.99,0.57,1.71,1.5,2.03,2.59c0.08,0.56,0.08,1.33,0.63,1.44c0.18,0.02,0.36-0.01,0.52-0.08
			c0.31-0.11,0.61-0.23,0.92-0.36c0.29-0.12,0.62-0.32,0.63-0.64c-0.02-0.2-0.1-0.38-0.24-0.53c-1.13-1.56-2.42-2.98-3.86-4.25
			c-3.16-2.64-7.2-4-11.32-3.8c-3.09,0.23-6.09,1.13-8.8,2.63c-1.45,0.89-2.67,2.1-3.57,3.54c-1.54,2.08-2.37,4.46-3.49,6.79
			c-0.48,1.09-0.83,2.23-1.03,3.4c-0.35,1-0.55,2.05-0.6,3.11C12.21,23.18,12.35,23.98,12.43,24.86"/>
	</g>
	<g id="Group_2321" transform="translate(86.08 254.215)">
		<path id="Path_853" class="st8" d="M27.57,15.11l0.73-2.25c0.13-0.4,0.26-0.81,0.35-1.22c0.19-1.01,0.27-2.03,0.23-3.06
			c0.02-0.38-0.02-0.77-0.1-1.14c-0.11-0.34-0.26-0.66-0.44-0.96L27.55,5.1C27.33,5.59,27,6.02,26.58,6.36
			c0.39,0.16,0.48,0.67,0.49,1.09c0.05,1.42-0.05,2.84-0.3,4.24c-0.09,0.52-0.5,1.41-0.38,1.93S27.23,14.73,27.57,15.11z"/>
		<path id="Path_854" class="st9" d="M21.75,7C22.91,5.95,24,4.82,25,3.62c0.13-0.23,0.31-0.43,0.54-0.57
			c0.15-0.06,0.3-0.1,0.46-0.11l1.02-0.13c0.19,0,0.37,0.1,0.47,0.26c-2.37,2.45-4.54,4.98-7.11,7.22
			c-0.35,0.35-0.78,0.61-1.26,0.76c-0.38,0.09-0.78,0.02-1.11-0.2c0.12-0.3,0.62-0.5,0.87-0.71c0.36-0.3,0.69-0.63,1.01-0.98
			C20.52,8.45,21.09,7.7,21.75,7z"/>
		<path id="Path_855" class="st10" d="M3.51,20.06c1.53-3.63,4.48-6.47,8.16-7.87c3.66-1.37,7.61-1.78,11.48-1.19
			c0.33,0.04,0.76,0.18,0.77,0.52c-0.01,0.16-0.08,0.31-0.19,0.43c-4.28,5.95-10.12,10.6-16.88,13.44c-1.27,0.51-3.49,1.7-3.96,0.03
			C2.64,23.61,2.85,21.77,3.51,20.06z"/>
		<path id="Path_856" class="st11" d="M11.42,22.3c4.28-3.51,8.27-7.37,12.19-11.29c1.75,1.49,3.35,3.15,4.75,4.97
			c0.2,0.22,0.33,0.49,0.37,0.78c-0.03,0.35-0.18,0.67-0.43,0.91c-2.57,3.02-5.5,5.7-8.75,7.98c-2.39,1.76-5.05,3.45-8.02,3.52
			c-1.58-0.01-3.13-0.36-4.56-1.02c-1.11-0.47-3.32-1.23-3.94-2.27c0.99-0.68,3-0.36,4.25-0.9C8.78,24.29,10.17,23.39,11.42,22.3z"
			/>
		<path id="Path_857" class="st12" d="M27.52,14.96c0,0,2.46-5.34,0.06-9.65l-5.32,5.58l-2.5-0.13l7.72-7.7c0,0,2.94,3.77,2.8,6.02
			c0,0-0.42,6.21-1.56,7.68"/>
	</g>
	<path id="Path_858" class="st13" d="M98.41,182.49c0,0-4.22-2.13-4.53-3.49c-1.08,1.21-1.84,2.67-2.18,4.26
		c-0.37,2.33-2.3,5.32-0.07,7.08s11.88,4.54,14.16,5c2.28,0.45,7.75,1.45,11.13,1.78c3.37,0.33,4.15,0.25,5.56-0.77
		s1.79-0.9,4.17-0.75c2.38,0.15,4.95,0.87,5.6,0.54c0.65-0.32-0.34-1.34-0.34-1.34c0.18,0.19,0.58,0.16,0.82,0.2
		c0.34,0.07,1.94,0.44,1.88-0.31c-0.05-0.65-0.85-1.18-1.33-1.53c-0.95-0.69-1.98-1.27-2.98-1.88c-0.87-0.54-1.8-0.99-2.77-1.33
		c-0.13-0.05-1.35-0.48-0.84-0.6c3.92,0.3,5.32,0.98,6.11,1.67s2.22,1.91,2.09,0.82c-0.35-1.13-0.9-2.19-1.61-3.14
		c0.57-0.36,2.08-1.2,1.37-1.81c-0.72-0.61-2.84,0.21-2.84,0.21c-0.67-0.66-1.55-1.06-2.49-1.11c-1.69-0.16-1-0.87-1-0.87
		c2.87-1.8,7.17-1.38,8.79-1.38c1.04,0,0.43-0.85-0.1-1.17c-1-0.44-2.07-0.69-3.17-0.73c-1.69-0.18-3.41-0.09-5.07,0.26
		c-1.82,0.45-3.58,1.12-5.23,2c-1.05,0.51-3.78,4.54-5.14,4.81c-1.36,0.28-4.35-0.94-4.35-0.94c-10.1-1.19-15.64-5.51-15.64-5.51"/>
</g>
</svg>
