<?xml version="1.0" encoding="utf-8"?>
<!-- Generator: Adobe Illustrator 26.0.0, SVG Export Plug-In . SVG Version: 6.00 Build 0)  -->
<svg version="1.1" id="Layer_1" xmlns="http://www.w3.org/2000/svg" xmlns:xlink="http://www.w3.org/1999/xlink" x="0px" y="0px"
	 viewBox="0 0 121 124" style="enable-background:new 0 0 121 124;" xml:space="preserve">
<style type="text/css">
	.st0{opacity:0.35;fill:#D8C2A4;enable-background:new    ;}
	.st1{fill:#E1C4A6;}
	.st2{fill:#F6DBB6;}
	.st3{opacity:0.57;fill:none;stroke:#D5B086;stroke-width:2;stroke-miterlimit:10;enable-background:new    ;}
	.st4{opacity:0.57;fill:none;stroke:#F6E4D1;stroke-width:2;stroke-miterlimit:10;enable-background:new    ;}
	.st5{fill:#7C4C24;}
	.st6{fill:#75431F;}
	.st7{fill:#523520;}
	.st8{fill:#6A3414;}
	.st9{fill:#9F5E34;}
	.st10{fill:#7A6F6A;}
	.st11{fill:#7F4719;}
	.st12{fill:#894D1E;}
	.st13{fill:#E6B391;}
	.st14{fill:#A38D64;}
	.st15{fill:#C3AF8B;}
	.st16{fill:#98824D;}
	.st17{fill:#6B422A;}
	.st18{clip-path:url(#SVGID_00000049188224815372083310000013135286855979569571_);}
	.st19{fill:#827857;}
	.st20{fill:#403925;}
	.st21{fill:none;stroke:#E4AB85;stroke-width:0.5;stroke-miterlimit:10;}
	.st22{fill:#A77752;}
	.st23{fill:#935734;}
	.st24{fill:#F99762;}
	.st25{fill:#A4744E;}
	.st26{fill:#B68557;}
	.st27{fill:#F0736D;}
	.st28{opacity:0.85;fill:#CBE5EB;enable-background:new    ;}
	.st29{opacity:0.9;fill:#CBE5EB;enable-background:new    ;}
	
		.st30{opacity:0.12;fill:none;stroke:#FFFFFF;stroke-width:3;stroke-linecap:round;stroke-miterlimit:10;enable-background:new    ;}
	.st31{fill:#19130D;}
	.st32{fill:#9B592A;}
	.st33{fill:#8F542C;}
	.st34{fill:#824821;}
	.st35{fill:#ECC180;}
	.st36{fill:#F8F4EF;}
	.st37{fill:none;stroke:#FCFBFA;stroke-width:2;stroke-miterlimit:10;}
	.st38{fill:none;stroke:#FCFBFA;stroke-miterlimit:10;}
	.st39{clip-path:url(#SVGID_00000183950784683226926450000014315812095616903340_);}
	.st40{fill:#836953;}
	.st41{fill:#725947;}
	.st42{clip-path:url(#SVGID_00000053519314393896588820000013813994239721653643_);}
	.st43{fill:#D2EDF3;}
	.st44{fill:#F5A844;}
	.st45{fill:#97C3CF;}
	.st46{fill:#755D4B;}
	.st47{fill:#EAC1A2;}
	.st48{fill:#604940;}
	.st49{fill:none;}
	.st50{clip-path:url(#SVGID_00000111892028581007570790000009901634721985747123_);}
	.st51{clip-path:url(#SVGID_00000171688641203955608870000005396085352976817328_);}
	.st52{fill:#E0B294;}
	.st53{fill:#ECBC99;}
	.st54{fill:#E5997C;}
	.st55{fill:#354952;}
	.st56{fill:#E6E6E6;}
	.st57{fill:#1C262B;}
	.st58{fill:#D8D8D8;}
	.st59{fill:#F7D2A6;}
	.st60{opacity:0.67;}
	.st61{clip-path:url(#SVGID_00000090272972413517019540000010306574459850546337_);}
	.st62{clip-path:url(#SVGID_00000114065111693871324660000004694873454469965240_);}
	.st63{opacity:0.2;}
	.st64{clip-path:url(#SVGID_00000070117642221064300720000011028124599182906766_);}
	.st65{opacity:0.27;}
	.st66{clip-path:url(#SVGID_00000102525994560241800010000016222520134490822554_);}
	.st67{fill:none;stroke:#64492F;stroke-width:2;stroke-miterlimit:10;}
	.st68{clip-path:url(#SVGID_00000086656635736821734480000005609195742238783368_);}
	.st69{clip-path:url(#SVGID_00000147931835968254298000000013800394524544676229_);}
	.st70{clip-path:url(#SVGID_00000173876023228464448520000012609231715192022411_);}
	.st71{clip-path:url(#SVGID_00000005265377049812628860000016133140163646035362_);}
	.st72{clip-path:url(#SVGID_00000065764217966508553290000017533496363848600728_);}
	.st73{clip-path:url(#SVGID_00000037665375606381321990000005454653009954472092_);}
	.st74{clip-path:url(#SVGID_00000154427807890423769010000010937798830820645773_);}
	.st75{clip-path:url(#SVGID_00000020386946170127564710000000798633914683469213_);}
	.st76{clip-path:url(#SVGID_00000057840514335600302780000004348130563224211843_);}
	.st77{clip-path:url(#SVGID_00000096758670621058045810000009253282610669881760_);}
	.st78{clip-path:url(#SVGID_00000148662177894184219160000012315548474849591968_);}
	.st79{clip-path:url(#SVGID_00000062188897665190213600000012444332974588769470_);}
	.st80{fill:#85B7C6;}
</style>
<g>
	<defs>
		<rect id="SVGID_00000010292524977538554170000007730201686191040424_" x="19.54" y="13.31" width="81.79" height="99.94"/>
	</defs>
	<clipPath id="SVGID_00000179642681225512558370000014456668286298425743_">
		<use xlink:href="#SVGID_00000010292524977538554170000007730201686191040424_"  style="overflow:visible;"/>
	</clipPath>
	<g id="Group_2645" style="clip-path:url(#SVGID_00000179642681225512558370000014456668286298425743_);">
		<g id="Group_2644">
			<g>
				<defs>
					<rect id="SVGID_00000119830544262190914600000013376432700629604025_" x="19.54" y="13.31" width="81.79" height="99.94"/>
				</defs>
				<clipPath id="SVGID_00000034075358465997189070000013383137178858358434_">
					<use xlink:href="#SVGID_00000119830544262190914600000013376432700629604025_"  style="overflow:visible;"/>
				</clipPath>
				<g id="Group_2643" style="clip-path:url(#SVGID_00000034075358465997189070000013383137178858358434_);">
					<path id="Path_1262" class="st52" d="M52.51,100.14c-0.31-0.81-0.68-1.6-1.1-2.36c-0.5-0.75-1.08-1.44-1.74-2.06l-3.61-3.67
						c-0.59-0.6-1.32-1.24-2.14-1.05c-0.87,0.35-1.42,1.21-1.37,2.14c0.06,0.89,0.32,1.76,0.77,2.54l3.59,7.43
						c0.7,1.46,1.49,3,2.88,3.68c0.36,0.18,0.75,0.28,1.15,0.3c0.96,0,1.88-0.42,2.52-1.14c0.69-0.73,1.34-1.73,0.88-2.66
						C53.79,102.2,53.01,101.28,52.51,100.14"/>
					<path id="Path_1263" class="st52" d="M55.02,96.41c0.71,2.94,1.34,5.91,1.88,8.93c0.05,0.16,0.03,0.34-0.06,0.48
						c-0.09,0.09-0.2,0.15-0.32,0.16c-3.14,0.72-5.89-0.95-8.35-2.57c-0.31-0.18-0.58-0.41-0.81-0.68
						c-0.28-0.44-0.46-0.94-0.53-1.45c-0.3-1.05-0.36-2.15-0.17-3.23c0.49-1.7,1.8-3.04,3.48-3.57
						C52.18,93.87,54.5,94.27,55.02,96.41"/>
					<path id="Path_1264" class="st53" d="M52.69,102.2c0,0,1.8-1.73,1.66-3.38s0.58-4.75-1.66-5.25c-1.15-0.32-2.37-0.32-3.53,0
						c0,0-5.97-2.16-7.34-1.37c-0.93,0.74-1.57,1.78-1.8,2.95c0,0-2.66,3.24-2.81,4.32c-0.04,0.75,0.19,1.49,0.65,2.09l0.94,0.29
						c0,0-0.29,1.22,0.14,1.73c0.39,0.4,0.84,0.75,1.32,1.03c0.04,0.71,0.41,1.37,1,1.77c1.01,0.72,3.44,0.38,3.44,0.38
						s5.54-0.45,6.55-1.38C51.98,104.45,52.48,103.36,52.69,102.2"/>
					<path id="Path_1265" class="st53" d="M38.6,101.81c3.02,0.77,6.09,1.34,9.18,1.7c0.53,0.06,1.16,0.08,1.48-0.35
						c0.27-0.48,0.14-1.09-0.3-1.43c-0.44-0.31-0.93-0.54-1.45-0.67c-1.37-0.59-2.67-1.33-3.87-2.22c-1.2-0.89-2.59-1.5-4.06-1.79"
						/>
					<path id="Path_1266" class="st54" d="M39.59,97.06c0.08,0,0.16,0,0.24,0.02c0.22,0.03,0.44,0.08,0.66,0.13
						c0.8,0.23,1.56,0.56,2.28,0.99c0.91,0.52,1.92,1.26,3.1,1.95c0.61,0.37,1.27,0.67,1.94,0.9c0.38,0.11,0.74,0.27,1.07,0.48
						c0.36,0.24,0.6,0.62,0.65,1.05c0.02,0.23-0.04,0.45-0.17,0.64c-0.13,0.18-0.32,0.3-0.53,0.36c-0.39,0.09-0.79,0.1-1.18,0.02
						c-0.75-0.09-1.47-0.19-2.15-0.29c-1.37-0.21-2.59-0.45-3.61-0.67s-1.84-0.42-2.41-0.58c-0.28-0.08-0.5-0.14-0.65-0.18
						c-0.08-0.02-0.15-0.04-0.22-0.08c0.08,0,0.16,0.01,0.23,0.04l0.66,0.14c0.57,0.12,1.4,0.3,2.42,0.51s2.25,0.42,3.61,0.62
						c0.68,0.1,1.4,0.19,2.14,0.28c0.36,0.07,0.73,0.06,1.09-0.02c0.35-0.08,0.58-0.41,0.54-0.77c-0.04-0.36-0.25-0.69-0.55-0.89
						c-0.32-0.2-0.66-0.35-1.01-0.45c-0.69-0.24-1.35-0.55-1.98-0.93c-1.19-0.71-2.18-1.47-3.08-2c-0.69-0.44-1.44-0.79-2.22-1.04
						C39.91,97.12,39.58,97.08,39.59,97.06"/>
					<path id="Path_1267" class="st55" d="M45.19,94.44l-4.64-9.52c0,0-0.44-1.56,0.58-1.74s1.46,0.18,1.69,0.76
						s5.7,12.02,5.7,12.02V98L45.19,94.44z"/>
					<path id="Path_1268" class="st55" d="M49.37,102.95c-0.11,0.22,1.92,2.88,2.27,2.62s-0.7-4.32-0.7-4.32l-0.4-1.19l-2.01-1.36
						l-0.16,2.17L49.37,102.95z"/>
					<path id="Path_1269" class="st53" d="M40.03,95.13c-0.16,2.11,1.92,2.46,3.14,3.41c1.19,0.88,2.45,1.65,3.78,2.3
						c0.59,0.31,1.32,0.67,1.91,0.36c0.49-0.25,0.56-0.68,0.5-1.23c-0.06-0.55-0.29-1.08-0.65-1.5c-1.52-1.75-2.93-3.28-4.62-4.9"/>
					<path id="Path_1270" class="st54" d="M44.09,93.56c0.06,0.04,0.12,0.08,0.17,0.13c0.11,0.09,0.26,0.23,0.46,0.42
						c0.39,0.37,0.95,0.91,1.62,1.61s1.44,1.54,2.29,2.49c0.49,0.49,0.79,1.14,0.86,1.83c0.02,0.18,0.02,0.37-0.02,0.55
						c-0.04,0.2-0.13,0.38-0.28,0.52c-0.3,0.27-0.71,0.38-1.11,0.29c-0.37-0.08-0.72-0.22-1.04-0.4l-0.93-0.49
						c-0.61-0.33-1.19-0.66-1.73-1s-1.03-0.72-1.47-1.05c-0.46-0.31-0.93-0.54-1.35-0.79c-0.38-0.21-0.73-0.49-1.03-0.81
						c-0.36-0.41-0.55-0.95-0.51-1.5c0-0.07,0.01-0.15,0.03-0.22c0.02,0.27,0.05,0.55,0.11,0.82c0.09,0.31,0.25,0.59,0.47,0.82
						c0.3,0.3,0.64,0.56,1.02,0.76c0.41,0.24,0.89,0.46,1.37,0.78c0.47,0.34,0.94,0.69,1.48,1.03s1.11,0.66,1.72,0.98l0.93,0.49
						c0.31,0.17,0.64,0.3,0.98,0.38c0.48,0.15,1-0.13,1.14-0.61c0.05-0.17,0.05-0.34,0.01-0.51c-0.06-0.65-0.34-1.25-0.8-1.71
						c-0.83-0.96-1.59-1.81-2.25-2.52s-1.19-1.26-1.56-1.65l-0.43-0.45C44.17,93.68,44.13,93.63,44.09,93.56"/>
					<path id="Path_1271" class="st53" d="M49.98,94.02c-1.64,1.06-2.11,3.25-1.05,4.88c0.13,0.2,0.28,0.38,0.44,0.55
						c0.3,0.34,0.72,0.56,1.17,0.61c0.56-0.05,1.09-0.31,1.46-0.74c0.74-0.7,1.38-1.5,1.9-2.38"/>
					<path id="Path_1272" class="st54" d="M53.91,96.94c-0.05,0.15-0.13,0.3-0.22,0.43c-0.23,0.38-0.49,0.74-0.77,1.08
						c-0.18,0.22-0.38,0.45-0.61,0.69c-0.24,0.26-0.51,0.49-0.8,0.7c-0.34,0.25-0.76,0.35-1.17,0.29c-0.43-0.1-0.81-0.34-1.1-0.68
						c-0.56-0.61-0.9-1.4-0.96-2.23c-0.05-0.67,0.1-1.35,0.43-1.94c0.22-0.39,0.51-0.74,0.86-1.03c0.12-0.11,0.26-0.2,0.41-0.26
						c-0.46,0.38-0.85,0.84-1.13,1.36c-0.29,0.57-0.42,1.21-0.37,1.85c0.07,0.78,0.39,1.52,0.92,2.09c0.25,0.3,0.59,0.52,0.98,0.61
						c0.36,0.05,0.72-0.04,1.02-0.25c0.28-0.19,0.54-0.42,0.78-0.66c0.23-0.23,0.44-0.45,0.62-0.66
						C53.52,97.52,53.87,96.92,53.91,96.94"/>
					<path id="Path_1273" class="st56" d="M21.2,110.52v-3.71c0-0.19,0.15-0.34,0.34-0.34c0,0,0,0,0.01,0l19.73,0.36l-19.58-0.77
						c-0.23-0.01-0.44-0.13-0.57-0.32c-0.1-0.17-0.05-0.38,0.11-0.48c0.01-0.01,0.03-0.02,0.05-0.02c0.12-0.05,0.24-0.08,0.37-0.07
						l31.17,0.93c0.19,0.01,0.33,0.16,0.33,0.35c0,0.04-0.01,0.09-0.03,0.13c-0.53,1.08-0.56,2.34-0.07,3.44
						c0.08,0.17,0.01,0.37-0.15,0.45c-0.05,0.02-0.1,0.03-0.15,0.04l-31.22,0.38C21.35,110.87,21.19,110.72,21.2,110.52
						C21.19,110.53,21.19,110.53,21.2,110.52"/>
					<path id="Path_1274" class="st57" d="M66.14,109.24l-10.49-2.77l-2.33-0.61h-1.16v4.63H21.09c-0.85,0-1.54,0.69-1.54,1.54
						c0.48-0.1,34.39,0,34.43,0c0.01,0-0.01-1.76-0.01-1.9c0-0.73,0.04-1.61,0.76-2.01c0.64-0.27,1.34-0.35,2.03-0.23
						c0.88,0.04,1.76,0.19,2.6,0.46c0.94,0.35,1.76,0.97,2.72,1.28c1.02,0.33,2.14,0.27,3.17,0.58c0.86,0.26,1.63,0.77,2.49,1.03
						c0.68,0.16,1.37,0.29,2.06,0.37c0.87,0.16,0.88-0.54,1.72-0.26"/>
					<path id="Path_1275" class="st57" d="M76.46,109.24c0.79,0.4,1.7,0.52,2.57,0.34c0.37-0.1-0.04-1.55-0.26-1.76
						c-0.23-0.15-0.49-0.24-0.76-0.27c-0.49-0.13-0.99-0.26-1.48-0.39"/>
					<path id="Path_1276" class="st58" d="M78.91,107.97l0.21-1.15c-3.92-0.63-1.2,4.75-4.79,3.07c-4.87-2.29-9.47-5.55-14.81-6.2
						c-1.23-0.19-2.49-0.12-3.7,0.18c-1.22,0.31-2.28,1.06-2.98,2.1c0,0,2.43,0.37,4.35,0.9"/>
					<path id="Path_1277" class="st58" d="M77.83,105.85c0.49-0.07,0.98-0.07,1.47-0.02c0.02,0.06-0.48,0.29-1.43,0.45"/>
					<path id="Path_1278" class="st58" d="M74.69,110.43c-1.99-1.12-4-2.58-6.15-3.98c-1.96-1.36-4.11-2.43-6.37-3.19
						c-1.82-0.62-3.76-0.75-5.64-0.38c-1.25,0.27-2.38,0.94-3.22,1.92c-0.59,0.7-0.76,1.21-0.85,1.18c-0.06-0.01-0.03-0.58,0.5-1.43
						c0.33-0.51,0.74-0.96,1.22-1.33c0.64-0.49,1.37-0.86,2.14-1.09c2.02-0.52,4.14-0.46,6.13,0.16c2.38,0.74,4.64,1.83,6.69,3.24
						c2.19,1.43,4.16,2.9,6.06,4.03"/>
					<path id="Path_1279" class="st57" d="M54.73,108.09c0.1-0.04,0.2-0.07,0.31-0.09c0.77-0.13,3.15-0.14,9.05,2.4
						c9.05,2.5,14.6-0.73,14.6-0.73s0.45-1.35,0-1.44s-18.56-0.27-18.56-0.27s-4.65-0.86-5.19-0.6c-0.25,0.09-0.37,0.36-0.28,0.61
						C54.67,108.02,54.7,108.06,54.73,108.09"/>
					<path id="Path_1280" class="st59" d="M71.93,113.17c-2.57,0.22-5.15-0.03-7.63-0.73c-0.85-0.21-1.64-0.6-2.33-1.15
						c-0.09-0.07-0.17-0.15-0.24-0.24c-0.34-0.1-0.66-0.25-0.95-0.46c-0.33-0.28-0.6-0.61-0.81-0.99
						c-4.24-6.87-4.94-15.28-5.52-23.34c-0.09-0.98-0.12-1.97-0.09-2.96c0-0.08,0-0.16-0.01-0.24c-0.2-2.45,0.19-4.91,1.14-7.17
						c1.02-1.71,2.38-3.2,4-4.37c0.62-0.82,1.3-1.59,2.05-2.3c0.66-0.62,1.39-1.23,2.09-1.85c0.3-0.48,0.54-1,0.7-1.54
						c0.08-0.75,0.1-1.51,0.08-2.27c0.25-1.4,0.91-1.43,2.22-1.71c0.02-0.19,0.08-0.37,0.18-0.53c0.41-0.43,1.01-0.64,1.61-0.55
						c1.16,0,2.33,0.06,3.49,0.18c1.16-0.12,2.33-0.18,3.49-0.18c0.59-0.09,1.19,0.12,1.61,0.55c0.1,0.16,0.16,0.34,0.18,0.53
						c1.31,0.27,1.97,0.3,2.22,1.71c-0.02,0.76,0.01,1.52,0.08,2.27c0.16,0.54,0.4,1.06,0.7,1.54c0.7,0.63,1.43,1.23,2.09,1.85
						c0.74,0.71,1.43,1.48,2.05,2.3c1.62,1.17,2.98,2.65,4,4.37c0.95,2.26,1.34,4.72,1.14,7.17c0,0.08,0,0.16-0.01,0.24
						c0.03,0.99,0,1.97-0.09,2.96c-0.58,8.06-1.27,16.47-5.51,23.34c-0.21,0.38-0.48,0.71-0.81,0.99c-0.29,0.21-0.61,0.36-0.95,0.46
						c-0.08,0.08-0.16,0.16-0.24,0.23c-0.68,0.55-1.48,0.94-2.33,1.15c-1.87,0.55-3.82,0.82-5.77,0.8
						C73.16,113.24,72.55,113.22,71.93,113.17"/>
					<g id="Group_2642" transform="translate(34.809 47.457)" class="st60">
						<g id="Group_2641">
							<g>
								<defs>
									<rect id="SVGID_00000027604416345721371680000011390801556320407227_" x="19.54" y="13.31" width="36.85" height="52.47"/>
								</defs>
								<clipPath id="SVGID_00000152970946841848498600000007310228503058577842_">
									<use xlink:href="#SVGID_00000027604416345721371680000011390801556320407227_"  style="overflow:visible;"/>
								</clipPath>
								<g id="Group_2640" style="clip-path:url(#SVGID_00000152970946841848498600000007310228503058577842_);">
									<g id="Group_2639" transform="translate(0 0)">
										<g>
											<defs>
												<path id="SVGID_00000050633214785659241640000015504994544849964948_" d="M20.69,28.44c-0.95,2.26-1.34,4.72-1.14,7.17
													c0.21,8.94,2.27,17.74,6.05,25.85c0.35,0.89,0.88,1.7,1.56,2.37c0.68,0.55,1.48,0.94,2.33,1.15
													c5.69,1.7,11.83,0.4,17.52-1.29c0.45-0.1,0.87-0.29,1.25-0.55c0.33-0.28,0.6-0.62,0.81-0.99
													c4.24-6.87,4.93-15.28,5.52-23.34c0.1-1.03,0.13-2.07,0.08-3.11c-0.31-2.68-1.18-5.25-2.57-7.56
													c-1.18-2.35-2.74-4.5-4.6-6.35c-2.09-1.97-4.94-3.79-5.06-6.65c0.04-0.43-0.03-0.86-0.21-1.25
													c-0.41-0.44-1.02-0.64-1.61-0.55c-2.81,0.01-5.61,0.34-8.34,0.99c-1.6,0.38-2.38,0.25-2.66,1.8
													c0.02,0.76-0.01,1.52-0.08,2.27C28.29,22.57,22.65,24.52,20.69,28.44"/>
											</defs>
											<clipPath id="SVGID_00000073688855715105821240000012594376041172283308_">
												<use xlink:href="#SVGID_00000050633214785659241640000015504994544849964948_"  style="overflow:visible;"/>
											</clipPath>
											<g id="Group_2638" style="clip-path:url(#SVGID_00000073688855715105821240000012594376041172283308_);">
												<g id="Group_2637" transform="translate(0.558 4.525)" class="st63">
													<g id="Group_2636">
														<g>
															<defs>
																
																	<rect id="SVGID_00000151501818873357837510000015755475810874726065_" x="19.54" y="13.31" width="36.29" height="47.64"/>
															</defs>
															<clipPath id="SVGID_00000059295457232507674260000002455536572819807916_">
																<use xlink:href="#SVGID_00000151501818873357837510000015755475810874726065_"  style="overflow:visible;"/>
															</clipPath>
															<g id="Group_2635" style="clip-path:url(#SVGID_00000059295457232507674260000002455536572819807916_);">
																<g id="Group_2598" transform="translate(12.024 32.03)" class="st65">
																	<g id="Group_2597">
																		<g>
																			<defs>
																				
																					<rect id="SVGID_00000127011004550678174540000005766459647444522926_" x="19.54" y="13.31" width="10.58" height="15.61"/>
																			</defs>
																			<clipPath id="SVGID_00000055700881486336605960000009598535582579053199_">
																				<use xlink:href="#SVGID_00000127011004550678174540000005766459647444522926_"  style="overflow:visible;"/>
																			</clipPath>
																			<g id="Group_2596" style="clip-path:url(#SVGID_00000055700881486336605960000009598535582579053199_);">
																				<path id="Path_1281" class="st67" d="M28,15.26c-0.34-0.59-0.83-1.08-1.41-1.43c-1.36-0.7-2.9,0.2-4.14,1.14
																					c-0.81,0.55-1.5,1.26-2.01,2.09c-0.57,1.15-0.75,2.45-0.52,3.71c0.22,1.24,0.65,2.42,1.26,3.52
																					c1.41,2.66,5.57,6.65,7.65,2.67C30.58,23.64,29.93,18.2,28,15.26z"/>
																			</g>
																		</g>
																	</g>
																</g>
																<g id="Group_2601" transform="translate(4.254 26.855)" class="st65">
																	<g id="Group_2600">
																		<g>
																			<defs>
																				
																					<rect id="SVGID_00000034790070075055311810000014211985181888245379_" x="19.54" y="13.31" width="9.65" height="8.9"/>
																			</defs>
																			<clipPath id="SVGID_00000104672200640626510410000011001466077938690204_">
																				<use xlink:href="#SVGID_00000034790070075055311810000014211985181888245379_"  style="overflow:visible;"/>
																			</clipPath>
																			<g id="Group_2599" style="clip-path:url(#SVGID_00000104672200640626510410000011001466077938690204_);">
																				<path id="Path_1282" class="st67" d="M27.24,14.51c-0.36-0.36-0.8-0.63-1.28-0.8
																					c-1.29-0.25-2.62-0.02-3.76,0.63c-0.68,0.27-1.3,0.66-1.82,1.16c-0.5,0.56-0.68,1.33-0.48,2.06
																					c0.23,0.73,0.62,1.4,1.15,1.95c1.28,1.47,5.05,3.69,6.94,1.48C29.58,19.16,28.99,16.14,27.24,14.51z"/>
																			</g>
																		</g>
																	</g>
																</g>
																<g id="Group_2604" transform="translate(11.544 21.704)" class="st65">
																	<g id="Group_2603">
																		<g>
																			<defs>
																				
																					<rect id="SVGID_00000023984728975480853670000018073416083591281572_" x="19.54" y="13.31" width="9.65" height="8.9"/>
																			</defs>
																			<clipPath id="SVGID_00000156563669104434286000000001728012177067772544_">
																				<use xlink:href="#SVGID_00000023984728975480853670000018073416083591281572_"  style="overflow:visible;"/>
																			</clipPath>
																			<g id="Group_2602" style="clip-path:url(#SVGID_00000156563669104434286000000001728012177067772544_);">
																				<path id="Path_1283" class="st67" d="M27.24,14.51c-0.36-0.36-0.8-0.63-1.28-0.8
																					c-1.29-0.25-2.62-0.02-3.76,0.63c-0.68,0.27-1.3,0.66-1.82,1.16c-0.5,0.56-0.68,1.33-0.48,2.06
																					c0.23,0.73,0.62,1.4,1.15,1.95c1.28,1.47,5.05,3.69,6.94,1.48C29.58,19.17,28.99,16.14,27.24,14.51z"/>
																			</g>
																		</g>
																	</g>
																</g>
																<g id="Group_2607" transform="translate(11.544 21.704)" class="st65">
																	<g id="Group_2606">
																		<g>
																			<defs>
																				
																					<rect id="SVGID_00000059274600356083441870000013957839736284851847_" x="19.54" y="13.31" width="9.65" height="8.9"/>
																			</defs>
																			<clipPath id="SVGID_00000132796302059548247080000003730396009381464960_">
																				<use xlink:href="#SVGID_00000059274600356083441870000013957839736284851847_"  style="overflow:visible;"/>
																			</clipPath>
																			<g id="Group_2605" style="clip-path:url(#SVGID_00000132796302059548247080000003730396009381464960_);">
																				<path id="Path_1284" class="st67" d="M27.24,14.51c-0.36-0.36-0.8-0.63-1.28-0.8
																					c-1.29-0.25-2.62-0.02-3.76,0.63c-0.68,0.27-1.3,0.66-1.82,1.16c-0.5,0.56-0.68,1.33-0.48,2.06
																					c0.23,0.73,0.62,1.4,1.15,1.95c1.28,1.47,5.05,3.69,6.94,1.48C29.58,19.17,28.99,16.14,27.24,14.51z"/>
																			</g>
																		</g>
																	</g>
																</g>
																<g id="Group_2610" transform="translate(22.819 37.102)" class="st65">
																	<g id="Group_2609">
																		<g>
																			<defs>
																				
																					<rect id="SVGID_00000161616043522851850820000003857405534125943994_" x="19.54" y="13.31" width="9.65" height="8.9"/>
																			</defs>
																			<clipPath id="SVGID_00000042715666831038332730000005791650029276572544_">
																				<use xlink:href="#SVGID_00000161616043522851850820000003857405534125943994_"  style="overflow:visible;"/>
																			</clipPath>
																			<g id="Group_2608" style="clip-path:url(#SVGID_00000042715666831038332730000005791650029276572544_);">
																				<path id="Path_1285" class="st67" d="M27.24,14.51c-0.36-0.36-0.8-0.63-1.28-0.8
																					c-1.29-0.25-2.62-0.02-3.76,0.63c-0.68,0.27-1.3,0.66-1.82,1.16c-0.5,0.56-0.68,1.33-0.48,2.06
																					c0.23,0.73,0.62,1.4,1.15,1.95c1.28,1.47,5.05,3.69,6.94,1.48C29.58,19.16,28.99,16.14,27.24,14.51z"/>
																			</g>
																		</g>
																	</g>
																</g>
																<g id="Group_2613" transform="translate(20.637 18.502)" class="st65">
																	<g id="Group_2612">
																		<g>
																			<defs>
																				
																					<rect id="SVGID_00000128455321381709101780000009707431721901689750_" x="19.54" y="13.31" width="9.65" height="8.9"/>
																			</defs>
																			<clipPath id="SVGID_00000119800003718380082830000013535733347915413161_">
																				<use xlink:href="#SVGID_00000128455321381709101780000009707431721901689750_"  style="overflow:visible;"/>
																			</clipPath>
																			<g id="Group_2611" style="clip-path:url(#SVGID_00000119800003718380082830000013535733347915413161_);">
																				<path id="Path_1286" class="st67" d="M27.24,14.51c-0.36-0.36-0.8-0.63-1.28-0.8
																					c-1.29-0.25-2.62-0.02-3.76,0.63c-0.68,0.27-1.3,0.66-1.82,1.16c-0.5,0.56-0.68,1.33-0.48,2.06
																					c0.23,0.73,0.62,1.4,1.15,1.95c1.28,1.47,5.05,3.69,6.94,1.48C29.58,19.16,28.99,16.14,27.24,14.51z"/>
																			</g>
																		</g>
																	</g>
																</g>
																<g id="Group_2616" transform="translate(12.494 12.529)" class="st65">
																	<g id="Group_2615">
																		<g>
																			<defs>
																				
																					<rect id="SVGID_00000129195485869833523480000000316211332172292481_" x="19.54" y="13.31" width="9.65" height="8.9"/>
																			</defs>
																			<clipPath id="SVGID_00000133524342771946482230000014338769586574784157_">
																				<use xlink:href="#SVGID_00000129195485869833523480000000316211332172292481_"  style="overflow:visible;"/>
																			</clipPath>
																			<g id="Group_2614" style="clip-path:url(#SVGID_00000133524342771946482230000014338769586574784157_);">
																				<path id="Path_1287" class="st67" d="M27.24,14.51c-0.36-0.36-0.8-0.63-1.28-0.8
																					c-1.29-0.25-2.62-0.02-3.76,0.63c-0.68,0.27-1.3,0.66-1.82,1.16c-0.5,0.56-0.68,1.33-0.48,2.06
																					c0.23,0.73,0.62,1.4,1.15,1.95c1.28,1.47,5.05,3.69,6.94,1.48C29.58,19.16,28.99,16.15,27.24,14.51z"/>
																			</g>
																		</g>
																	</g>
																</g>
																<g id="Group_2619" transform="translate(5.571 16.993)" class="st65">
																	<g id="Group_2618">
																		<g>
																			<defs>
																				
																					<rect id="SVGID_00000051377398225014121490000006145398326512124336_" x="19.54" y="13.31" width="7.76" height="6.76"/>
																			</defs>
																			<clipPath id="SVGID_00000039829831814370143920000011180666346695918226_">
																				<use xlink:href="#SVGID_00000051377398225014121490000006145398326512124336_"  style="overflow:visible;"/>
																			</clipPath>
																			<g id="Group_2617" style="clip-path:url(#SVGID_00000039829831814370143920000011180666346695918226_);">
																				<path id="Path_1288" class="st67" d="M25.71,14.2c-0.29-0.27-0.64-0.48-1.02-0.6c-1.6-0.14-3.18,0.34-4.43,1.35
																					c-0.39,0.41-0.54,1-0.38,1.55c0.18,0.56,0.5,1.06,0.91,1.47c1.02,1.11,4,2.78,5.5,1.12
																					C27.56,17.7,27.09,15.43,25.71,14.2z"/>
																			</g>
																		</g>
																	</g>
																</g>
																<g id="Group_2622" transform="translate(0 20.953)" class="st65">
																	<g id="Group_2621">
																		<g>
																			<defs>
																				
																					<rect id="SVGID_00000026141772827227695640000014807845228640421765_" x="19.54" y="13.31" width="7.04" height="6.84"/>
																			</defs>
																			<clipPath id="SVGID_00000042004667598139786160000001684253501914261888_">
																				<use xlink:href="#SVGID_00000026141772827227695640000014807845228640421765_"  style="overflow:visible;"/>
																			</clipPath>
																			<g id="Group_2620" style="clip-path:url(#SVGID_00000042004667598139786160000001684253501914261888_);">
																				<path id="Path_1289" class="st67" d="M25.11,14.28c-0.25-0.27-0.57-0.47-0.91-0.6
																					c-0.92-0.18-1.88-0.01-2.68,0.48c-0.49,0.2-0.93,0.5-1.3,0.87c-0.36,0.43-0.48,1.01-0.34,1.55
																					c0.16,0.55,0.44,1.05,0.82,1.47c0.91,1.11,3.6,2.78,4.95,1.12C26.67,17.62,26.45,15.57,25.11,14.28z"/>
																			</g>
																		</g>
																	</g>
																</g>
																<g id="Group_2625" transform="translate(21.803 11.071)" class="st65">
																	<g id="Group_2624">
																		<g>
																			<defs>
																				
																					<rect id="SVGID_00000152980601022802937360000010711832291010287005_" x="19.54" y="13.31" width="7.04" height="6.84"/>
																			</defs>
																			<clipPath id="SVGID_00000176032084978854465840000005119193783640158083_">
																				<use xlink:href="#SVGID_00000152980601022802937360000010711832291010287005_"  style="overflow:visible;"/>
																			</clipPath>
																			<g id="Group_2623" style="clip-path:url(#SVGID_00000176032084978854465840000005119193783640158083_);">
																				<path id="Path_1290" class="st67" d="M25.11,14.28c-0.25-0.27-0.57-0.47-0.91-0.6
																					c-0.92-0.18-1.88-0.01-2.68,0.48c-0.49,0.2-0.93,0.5-1.3,0.87c-0.36,0.43-0.48,1.01-0.34,1.55
																					c0.16,0.54,0.44,1.05,0.82,1.47c0.91,1.11,3.6,2.78,4.95,1.12C26.67,17.62,26.45,15.57,25.11,14.28z"/>
																			</g>
																		</g>
																	</g>
																</g>
																<g id="Group_2628" transform="translate(25.003)" class="st65">
																	<g id="Group_2627">
																		<g>
																			<defs>
																				
																					<rect id="SVGID_00000086680446918280955070000017602410518246662824_" x="19.54" y="13.31" width="9.45" height="13.21"/>
																			</defs>
																			<clipPath id="SVGID_00000180340535868381720970000015774252704669231248_">
																				<use xlink:href="#SVGID_00000086680446918280955070000017602410518246662824_"  style="overflow:visible;"/>
																			</clipPath>
																			<g id="Group_2626" style="clip-path:url(#SVGID_00000180340535868381720970000015774252704669231248_);">
																				<path id="Path_1291" class="st67" d="M23.53,14.42c-0.4-0.38-0.88-0.66-1.4-0.82
																					c-1.07-0.21-1.61,0.97-1.96,2.11c-0.26,0.74-0.38,1.53-0.34,2.32c0.14,1.16,0.54,2.28,1.18,3.27
																					c0.61,0.96,1.33,1.84,2.15,2.62c1.89,1.85,5.91,4.06,5.54,0.13C28.07,20.37,26.25,16.98,23.53,14.42z"/>
																			</g>
																		</g>
																	</g>
																</g>
																<g id="Group_2631" transform="translate(29.253 25.881)" class="st65">
																	<g id="Group_2630">
																		<g>
																			<defs>
																				
																					<rect id="SVGID_00000105422230365482780910000000316672091691031743_" x="19.54" y="13.31" width="7.04" height="6.84"/>
																			</defs>
																			<clipPath id="SVGID_00000018954619635519543390000000822917696786514346_">
																				<use xlink:href="#SVGID_00000105422230365482780910000000316672091691031743_"  style="overflow:visible;"/>
																			</clipPath>
																			<g id="Group_2629" style="clip-path:url(#SVGID_00000018954619635519543390000000822917696786514346_);">
																				<path id="Path_1292" class="st67" d="M25.11,14.28c-0.25-0.27-0.57-0.47-0.91-0.6
																					c-0.92-0.18-1.88-0.01-2.68,0.48c-0.49,0.2-0.93,0.5-1.3,0.87c-0.36,0.43-0.48,1.01-0.34,1.55
																					c0.16,0.54,0.44,1.05,0.82,1.47c0.91,1.11,3.6,2.78,4.95,1.12C26.67,17.62,26.45,15.57,25.11,14.28z"/>
																			</g>
																		</g>
																	</g>
																</g>
																<g id="Group_2634" transform="translate(3.601 35.704)" class="st65">
																	<g id="Group_2633">
																		<g>
																			<defs>
																				
																					<rect id="SVGID_00000043440120248419424310000006698698144299010200_" x="19.54" y="13.31" width="8.98" height="11.7"/>
																			</defs>
																			<clipPath id="SVGID_00000107580591422035100700000008293502616370657679_">
																				<use xlink:href="#SVGID_00000043440120248419424310000006698698144299010200_"  style="overflow:visible;"/>
																			</clipPath>
																			<g id="Group_2632" style="clip-path:url(#SVGID_00000107580591422035100700000008293502616370657679_);">
																				<path id="Path_1293" class="st67" d="M26.7,14.83c-0.3-0.45-0.71-0.81-1.19-1.06
																					c-1.14-0.52-2.43,0.15-3.48,0.85c-0.67,0.39-1.24,0.92-1.69,1.55c-0.48,0.83-0.63,1.81-0.44,2.74
																					c0.19,0.93,0.55,1.81,1.07,2.61c1.19,1.97,4.68,4.92,6.43,1.98C28.87,21.03,28.32,17,26.7,14.83z"/>
																			</g>
																		</g>
																	</g>
																</g>
															</g>
														</g>
													</g>
												</g>
											</g>
										</g>
									</g>
								</g>
							</g>
						</g>
					</g>
					<path id="Path_1295" class="st80" d="M100.99,57.46l-1.98-18.04l-0.52-4.74c-0.41-3.72-0.84-7.43-1.28-11.15
						c-0.13-1.14,0.04-4.29-0.67-5.97c0.23-1.45-2.85-2.04-3.9-2.26c-3.76-0.77-7.56-1.34-11.38-1.73
						c-1.52-0.15-3.05-0.28-4.57-0.28c-1.57,0-3.14,0.12-4.7,0.24h-0.06h-0.06c-1.56-0.12-3.13-0.24-4.69-0.24
						c-1.53,0-3.05,0.13-4.57,0.28c-3.82,0.38-7.62,0.96-11.38,1.73c-0.99,0.2-3.8,0.75-3.9,2.04c-0.76,1.7-0.58,5.07-0.72,6.27
						c-0.43,3.83-0.87,7.67-1.28,11.51c-0.17,1.63-0.35,3.26-0.52,4.89l-1.98,18.62c-0.09,0.81-0.56,2.97-0.06,3.49v0.05l0.08,0.01
						c0.09,0.05,0.21,0.06,0.31,0.04h0.02c11.74,1.16,23.56,1.4,35.34,0.71c3.73-0.22,7.46-0.53,11.18-0.84l11.04-0.92
						c0.08,0,0.17-0.01,0.26-0.02C101.71,61.05,101.1,58.4,100.99,57.46"/>
				</g>
			</g>
		</g>
	</g>
</g>
</svg>
