<?xml version="1.0" encoding="utf-8"?>
<!-- Generator: Adobe Illustrator 26.0.0, SVG Export Plug-In . SVG Version: 6.00 Build 0)  -->
<svg version="1.1" id="Layer_1" xmlns="http://www.w3.org/2000/svg" xmlns:xlink="http://www.w3.org/1999/xlink" x="0px" y="0px"
	 viewBox="0 0 123.4 131" style="enable-background:new 0 0 123.4 131;" xml:space="preserve">
<style type="text/css">
	.st0{fill:none;}
	.st1{fill:#A77752;}
	.st2{fill:#935734;}
	.st3{fill:#F99762;}
	.st4{fill:#A4744E;}
	.st5{fill:#B68557;}
	.st6{fill:#F0736D;}
	.st7{opacity:0.85;enable-background:new    ;}
	.st8{fill:#CBE5EB;}
	.st9{opacity:0.9;enable-background:new    ;}
	.st10{opacity:0.12;enable-background:new    ;}
	.st11{fill:#FFFFFF;}
	.st12{fill:#E6B391;}
</style>
<g transform="translate(-5.592 14.711)">
	<g>
		<rect x="6" y="-14.7" class="st0" width="123" height="131"/>
	</g>
	<g transform="translate(0 11)">
		<g>
			<path class="st1" d="M5.6,94.8c-0.1,2.3,1.6,4.4,3.7,5.5c2.1,1,4.4,1.5,6.8,1.6c30.7,3.1,61.6,3.9,92.4,1.1
				c3.6-0.3,7.2-0.7,10.5-2.2c1.2-0.4,2.2-1.2,2.9-2.2c1.9-3.3-2.3-7.2-1.7-11c0.1-0.3,0.1-0.7,0-1c-0.3-0.7-1.3-0.4-2-0.1
				c-1.8,0.6-3.7,0.9-5.6,0.8c-24.1,0.6-48.2-2.1-72.2-3c-5.8-0.2-11.6-0.4-17.4,0c-2.9,0.2-5.9,0.4-8.8,0.9
				c-1.4,0.2-2.9,0.5-4.3,0.8c-1.3,0.3-1.6,0.3-1.8,1.6C7.5,90,5.7,92.2,5.6,94.8z"/>
		</g>
		<g>
			<ellipse class="st2" cx="64" cy="87" rx="56.1" ry="4.7"/>
		</g>
		<g transform="translate(42.146 56.779)">
			<g>
				<path class="st3" d="M0.8,13.8c0,0,0.2,14,1.8,14.6s33.7,5.5,34,3.3c1-7.4,1.5-12.1,0.6-15.7C36.5,13.3,8,11.3,8,11.3L0.8,13.8z
					"/>
			</g>
			<g>
				<path class="st3" d="M8,11.3l-7.2,2.4c0,0,0,2.5,0.2,5.4c0.8,0.2,1.7,0,2.4-0.5c1.4-1.2,2.3,2.8,4.7,1.8s1.6-2.2,3-2
					s1.8,3.6,5.3,3.6s2.7-2.8,4.3-2.8s1.3,2,2.7,2.2s0.9-1.7,2.1-1.1S26,24,29,23.8s2.2-2.5,3.6-2.7s-0.6,4,1.2,4.3
					c1.1,0.2,2.6-1.1,3.7-2.7c0.2-2.2,0.1-4.5-0.4-6.7C36.5,13.3,8,11.3,8,11.3z"/>
			</g>
			<g>
				<path class="st4" d="M0.1,11.9c0,0-0.7,4.8,1.2,5.2s1.6-2,3.4-1.6s1.1,2.8,3.2,2.4s2.1-3.7,3.9-3s1.9,5,4,5.6s1.9-4.4,4.3-4.3
					s1,1.7,2.7,2.4s0.6-2.8,2-2.4c1.4,0.3,1.6,4.6,3.9,5.1s2.4-4.3,4-4.2s0.2,4.3,2,4.8s4-4.6,3.7-6.5C38.6,15.4,3.1,9.9,0.1,11.9z"
					/>
			</g>
			<g>
				<path class="st5" d="M38.6,15.4c0.2,0.6-37.2-3-38.5-3.5S8,5.4,12,4.4C14.7,3.7,38.2,14,38.6,15.4z"/>
			</g>
			<g transform="translate(4.191)">
				<g>
					<ellipse class="st6" cx="3.5" cy="7.4" rx="2.7" ry="2.7"/>
				</g>
				<g>
					<ellipse class="st6" cx="17.1" cy="8.2" rx="3.1" ry="3.1"/>
				</g>
				<g>
					<ellipse class="st6" cx="10.3" cy="5" rx="5" ry="5"/>
				</g>
			</g>
		</g>
		<g transform="translate(15.122)">
			<g class="st7">
				<path class="st8" d="M68.2,31.4c-1.4-1-2.3-2.5-2.5-4.2c0-1.6,1-3.1,1.9-4.4c0.9-1.2,1.6-2.5,2-3.9c0.5-1.4,0.4-3-0.2-4.3
					c-0.9-1.6-2.3-2.7-4-3.3c-1.1-0.4-2.3-0.7-3.5-0.8c-1.2-0.2-2.4-0.2-3.6-0.1c-1.8,0.1-3.5,0.9-4.8,2.2c-0.9,1.2-1.4,2.7-1.3,4.2
					c0.1,1.5,0.4,2.9,1,4.3c0.5,1.5,1.2,3.2,0.7,4.8c-0.6,1.6-1.9,2.8-3.5,3.4c-1.8,0.8-0.8,1.6,0.7,2.1c2.4,0.8,4.8,1.4,7.2,1.8
					c0,0,0,0,0,0c0.2,0,0.4,0,0.6,0.1c1.3,0.2,2.6,0.4,4,0.5c0-0.1,0-0.2,0-0.3c1.3,0,2.7,0,4-0.1C68.6,33.2,69.8,32.7,68.2,31.4z"
					/>
			</g>
			<g class="st9">
				<path class="st8" d="M106.6,82.2c0-0.1,0-0.1,0-0.2l0.6-4.9l3-23.5c0.1-0.5,0.1-1,0.2-1.5c0.5-3.8,0.7-8.4-2.2-10.9
					c-1.4-1-2.9-1.7-4.6-2.1c-6.9-2-13.9-3.6-21-5c0,0,0,0,0-0.1c-1.1-0.2-2.2-0.4-3.3-0.6c-6.6-1.2-13.3-2.2-20-3.1
					c-6.8-0.9-13.6-1.7-20.5-2.2c-5.5-0.5-11-0.9-16.5-1.3c-3.6-0.3-7.3-0.5-10.8,0.6c-0.2,0.1-0.4,0.1-0.6,0.2
					c-0.7,0.1-1.3,0.3-1.9,0.6c-1.3,0.7-2.3,1.7-3,3c-0.8,1.1-1.4,2.4-1.5,3.7L0.2,69.2c0,0.1,0,0.2,0,0.2L0,70.9
					c8.6,4,17.9,5.9,27.3,7.3c13.5,2.5,27.1,4.3,40.8,5.4c2.8,0.4,5.6,0.7,8.3,1c6.2,0.8,12.5,1.1,18.8,1.1l0,0
					c2.6,0.2,5.2,0.1,7.8-0.2c0.8-0.1,1.6-0.3,2.4-0.7c0.1-0.1,0.2-0.2,0.3-0.2c0.4-0.2,0.6-0.5,0.7-0.9c0.1-0.2,0.1-0.4,0.1-0.6
					C106.6,82.7,106.6,82.5,106.6,82.2z"/>
			</g>
			<g transform="translate(6.878 34.496)">
				<g class="st10">
					<path class="st11" d="M0,37.3c-0.1,0-0.1,0-0.2,0c-0.8-0.1-1.4-0.9-1.3-1.7L3.2-0.2C3.3-1,4-1.6,4.8-1.5
						c0.8,0.1,1.4,0.9,1.3,1.7L1.5,36C1.4,36.8,0.7,37.3,0,37.3z"/>
				</g>
				<g class="st10">
					<path class="st11" d="M10.6,38.7c-0.1,0-0.1,0-0.2,0C9.5,38.6,9,37.8,9.1,37l4.7-35.8c0.1-0.8,0.9-1.4,1.7-1.3
						c0.8,0.1,1.4,0.9,1.3,1.7L12,37.4C11.9,38.1,11.3,38.7,10.6,38.7z"/>
				</g>
			</g>
			<g class="st10">
				<path class="st11" d="M96.8,83.5c-0.1,0-0.1,0-0.2,0c-0.8-0.1-1.4-0.9-1.3-1.7L99.9,46c0.1-0.8,0.9-1.4,1.7-1.3
					c0.8,0.1,1.4,0.9,1.3,1.7l-4.7,35.8C98.2,82.9,97.5,83.5,96.8,83.5z"/>
			</g>
			<g class="st10">
				<path class="st11" d="M104.6,84.5c-0.1,0-0.1,0-0.2,0c-0.8-0.1-1.4-0.9-1.3-1.7l4.7-35.8c0.1-0.8,0.9-1.4,1.7-1.3
					c0.8,0.1,1.4,0.9,1.3,1.7l-4.7,35.8C106,84,105.3,84.5,104.6,84.5z"/>
			</g>
			<g class="st10">
				<path class="st11" d="M81.1,81.5c-0.1,0-0.1,0-0.2,0c-0.8-0.1-1.4-0.9-1.3-1.7l4.7-35.8c0.1-0.8,0.9-1.4,1.7-1.3
					c0.8,0.1,1.4,0.9,1.3,1.7l-4.7,35.8C82.5,80.9,81.9,81.5,81.1,81.5z"/>
			</g>
			<g class="st10">
				<path class="st11" d="M89,82.5c-0.1,0-0.1,0-0.2,0c-0.8-0.1-1.4-0.9-1.3-1.7L92.1,45c0.1-0.8,0.9-1.4,1.7-1.3
					c0.8,0.1,1.4,0.9,1.3,1.7l-4.7,35.8C90.3,81.9,89.7,82.5,89,82.5z"/>
			</g>
			<g class="st10">
				<path class="st11" d="M65.5,79.4c-0.1,0-0.1,0-0.2,0c-0.8-0.1-1.4-0.9-1.3-1.7l4.7-35.8c0.1-0.8,0.9-1.4,1.7-1.3
					c0.8,0.1,1.4,0.9,1.3,1.7L67,78.1C66.9,78.9,66.3,79.4,65.5,79.4z"/>
			</g>
			<g class="st10">
				<path class="st11" d="M73.3,80.5c-0.1,0-0.1,0-0.2,0c-0.8-0.1-1.4-0.9-1.3-1.7l4.7-35.8c0.1-0.8,0.9-1.4,1.7-1.3
					c0.8,0.1,1.4,0.9,1.3,1.7l-4.7,35.8C74.7,79.9,74.1,80.5,73.3,80.5z"/>
			</g>
			<g transform="translate(50.068 40.106)">
				<g class="st10">
					<path class="st11" d="M0,37.3c-0.1,0-0.1,0-0.2,0c-0.8-0.1-1.4-0.9-1.3-1.7L3.2-0.2C3.3-1,4-1.6,4.8-1.5
						c0.8,0.1,1.4,0.9,1.3,1.7L1.5,36C1.4,36.8,0.7,37.3,0,37.3z"/>
				</g>
				<g class="st10">
					<path class="st11" d="M7.8,38.3c-0.1,0-0.1,0-0.2,0c-0.8-0.1-1.4-0.9-1.3-1.7L11,0.8c0.1-0.8,0.9-1.4,1.7-1.3
						c0.8,0.1,1.4,0.9,1.3,1.7L9.3,37C9.2,37.8,8.6,38.3,7.8,38.3z"/>
				</g>
			</g>
			<g transform="translate(32.479 37.822)">
				<g class="st10">
					<path class="st11" d="M0,37.3c-0.1,0-0.1,0-0.2,0c-0.8-0.1-1.4-0.9-1.3-1.7L3.2-0.2C3.3-1,4-1.6,4.8-1.5
						c0.8,0.1,1.4,0.9,1.3,1.7L1.5,36C1.4,36.8,0.7,37.3,0,37.3z"/>
				</g>
				<g class="st10">
					<path class="st11" d="M7.8,38.3c-0.1,0-0.1,0-0.2,0c-0.8-0.1-1.4-0.9-1.3-1.7L11,0.8c0.1-0.8,0.9-1.4,1.7-1.3
						c0.8,0.1,1.4,0.9,1.3,1.7L9.3,37C9.2,37.8,8.6,38.3,7.8,38.3z"/>
				</g>
			</g>
			<g transform="translate(26.616 37.06)">
				<g class="st10">
					<path class="st11" d="M0,37.3c-0.1,0-0.1,0-0.2,0c-0.8-0.1-1.4-0.9-1.3-1.7L3.2-0.2C3.3-1,4-1.6,4.8-1.5
						c0.8,0.1,1.4,0.9,1.3,1.7L1.5,36C1.4,36.8,0.7,37.3,0,37.3z"/>
				</g>
			</g>
			<g>
				<path class="st12" d="M113.9,21.7c0,0-1.5-9.7-6.4-11.9c0,0-3.1,4.8-11.2,1s-17.9-8-21-9.4s-6-1.7-10.6-0.7S46.2,5.2,42.9,7.9
					s1.5,3.5,5.7,2.1c2.7-0.9,5.6-1.4,8.5-1.4c0,0-14.1,14.5-15,15.8s3.9,3.4,7.3-1.1L46.8,29c0,0,2.5,2.5,6.5-2.3l0.9-1.5
					c0,0,2.9,2.9,6.3-1.8c0,0,0.6-1.1,2.4,0s4.5,0.6,9.4,1.1s6.1,1.2,10.9,3.5s12.4,4.6,21.1-0.6S113.9,21.7,113.9,21.7z"/>
			</g>
		</g>
	</g>
</g>
</svg>
