<?xml version="1.0" encoding="utf-8"?>
<!-- Generator: Adobe Illustrator 26.0.0, SVG Export Plug-In . SVG Version: 6.00 Build 0)  -->
<svg version="1.1" id="Layer_1" xmlns="http://www.w3.org/2000/svg" xmlns:xlink="http://www.w3.org/1999/xlink" x="0px" y="0px"
	 viewBox="0 0 97 124" style="enable-background:new 0 0 97 124;" xml:space="preserve">
<style type="text/css">
	.st0{opacity:0.35;fill:#D8C2A4;enable-background:new    ;}
	.st1{fill:#E1C4A6;}
	.st2{fill:#F6DBB6;}
	.st3{opacity:0.57;fill:none;stroke:#D5B086;stroke-width:2;stroke-miterlimit:10;enable-background:new    ;}
	.st4{opacity:0.57;fill:none;stroke:#F6E4D1;stroke-width:2;stroke-miterlimit:10;enable-background:new    ;}
	.st5{fill:#7C4C24;}
	.st6{fill:#75431F;}
	.st7{fill:#523520;}
	.st8{fill:#6A3414;}
	.st9{fill:#9F5E34;}
	.st10{fill:#7A6F6A;}
	.st11{fill:#7F4719;}
	.st12{fill:#894D1E;}
	.st13{fill:#E6B391;}
	.st14{fill:#A38D64;}
	.st15{fill:#C3AF8B;}
	.st16{fill:#98824D;}
	.st17{fill:#6B422A;}
	.st18{clip-path:url(#SVGID_00000148626440801635640640000016576741522406351766_);}
	.st19{fill:#827857;}
	.st20{fill:#403925;}
	.st21{fill:none;stroke:#E4AB85;stroke-width:0.5;stroke-miterlimit:10;}
	.st22{fill:#A77752;}
	.st23{fill:#935734;}
	.st24{fill:#F99762;}
	.st25{fill:#A4744E;}
	.st26{fill:#B68557;}
	.st27{fill:#F0736D;}
	.st28{opacity:0.85;fill:#CBE5EB;enable-background:new    ;}
	.st29{opacity:0.9;fill:#CBE5EB;enable-background:new    ;}
	
		.st30{opacity:0.12;fill:none;stroke:#FFFFFF;stroke-width:3;stroke-linecap:round;stroke-miterlimit:10;enable-background:new    ;}
	.st31{fill:#19130D;}
	.st32{fill:#9B592A;}
	.st33{fill:#8F542C;}
	.st34{fill:#824821;}
	.st35{fill:#ECC180;}
	.st36{fill:#F8F4EF;}
	.st37{fill:none;stroke:#FCFBFA;stroke-width:2;stroke-miterlimit:10;}
	.st38{fill:none;stroke:#FCFBFA;stroke-miterlimit:10;}
	.st39{clip-path:url(#SVGID_00000176036120508408942210000001129716071329532564_);}
	.st40{fill:#836953;}
	.st41{fill:#725947;}
	.st42{clip-path:url(#SVGID_00000130647122321644002060000015492894702921969292_);}
	.st43{fill:#D2EDF3;}
	.st44{fill:#F5A844;}
	.st45{fill:#97C3CF;}
	.st46{fill:#755D4B;}
	.st47{fill:#EAC1A2;}
	.st48{fill:#604940;}
	.st49{fill:none;}
	.st50{clip-path:url(#SVGID_00000085958125632907084810000010039158111497634178_);}
	.st51{clip-path:url(#SVGID_00000066518121300509085950000017902319182316870036_);}
	.st52{fill:#E0B294;}
	.st53{fill:#ECBC99;}
	.st54{fill:#E5997C;}
	.st55{fill:#354952;}
	.st56{fill:#E6E6E6;}
	.st57{fill:#1C262B;}
	.st58{fill:#D8D8D8;}
	.st59{fill:#F7D2A6;}
	.st60{opacity:0.67;}
	.st61{clip-path:url(#SVGID_00000027603962280764453140000010028748182643832985_);}
	.st62{clip-path:url(#SVGID_00000096760486755375047270000008366323832575030177_);}
	.st63{opacity:0.2;}
	.st64{clip-path:url(#SVGID_00000054965698516250368350000016817815715695783081_);}
	.st65{opacity:0.27;}
	.st66{clip-path:url(#SVGID_00000014629092997794246920000007520041047807006605_);}
	.st67{fill:none;stroke:#64492F;stroke-width:2;stroke-miterlimit:10;}
	.st68{clip-path:url(#SVGID_00000100360903526918795420000014691869033860374452_);}
	.st69{clip-path:url(#SVGID_00000162326442814157899690000016977703901838013574_);}
	.st70{clip-path:url(#SVGID_00000170966290749191254030000004329766897415982487_);}
	.st71{clip-path:url(#SVGID_00000149344152217239570410000004753042298252064669_);}
	.st72{clip-path:url(#SVGID_00000137095547598796881990000003705877947189161108_);}
	.st73{clip-path:url(#SVGID_00000065057629513229376150000010956147270086119584_);}
	.st74{clip-path:url(#SVGID_00000140718737297157673510000017427927205947800728_);}
	.st75{clip-path:url(#SVGID_00000013175008284993568450000000454471647827967899_);}
	.st76{clip-path:url(#SVGID_00000093145783918008628190000004907191506401338766_);}
	.st77{clip-path:url(#SVGID_00000150083885374895906040000001827330880906042766_);}
	.st78{clip-path:url(#SVGID_00000143600357883975637420000003018501564605622195_);}
	.st79{clip-path:url(#SVGID_00000044136276887716092360000016233487212843574941_);}
	.st80{fill:#85B7C6;}
</style>
<g id="Group_1117" transform="translate(9.387 0)">
	<g id="Group_991">
		<g id="Group_959">
			<path id="Path_405" class="st14" d="M60.35,106.31c0.14-0.41,0.14-0.84,0-1.25c-0.94-0.13-1.89,0.11-2.66,0.66l-4,0.15
				l-8.33,0.05l-8.33-0.05l-4-0.15c-0.77-0.55-1.72-0.78-2.66-0.66c-0.14,0.41-0.14,0.84,0,1.25c-0.28,0.51,0.08,1.23,0.53,1.66
				c1.19,0.95,2.62,1.55,4.13,1.71c1.64,0.28,3.3,0.47,4.97,0.57c3.56,0.37,7.16,0.37,10.72,0c1.67-0.1,3.32-0.29,4.97-0.57
				c1.51-0.17,2.95-0.76,4.13-1.71C60.28,107.54,60.63,106.81,60.35,106.31z"/>
			<path class="st15" d="M26.74,56.69c-0.11-0.25-0.16-0.53-0.14-0.8v-6.97c2.91,0,5.76,0.78,8.64,1.16
				c3.62,0.48,7.3,0.43,10.91-0.08c0.9-0.13,1.81-0.28,2.72-0.16c0.77,0.11,1.49,0.41,2.25,0.56c1.06,0.22,2.15,0.14,3.23,0.06
				c0.93-0.07,1.87-0.14,2.73-0.49c1.87-0.76,3.64-1.36,5.66-1.23c0.18,0.01,0.37,0.03,0.54,0.11c0.35,0.18,0.49,0.6,0.49,0.99
				c0,0.39-0.12,0.77-0.15,1.16c-0.07,0.85,0.25,1.68,0.44,2.52c0.19,0.83,0.22,1.8-0.35,2.45c-0.35,0.4-0.87,0.61-1.37,0.8
				c-2.65,1-5.48,1.9-8.28,1.47c-1.82-0.28-3.51-1.12-5.25-1.72c-2.3-0.8-4.75-1.2-7.19-1.12c-1.55,0.05-3.09,0.3-4.64,0.32
				c-2.06,0.03-4.13-0.34-6.19-0.13C29.36,55.74,28.1,56.28,26.74,56.69z"/>
			<path id="Path_406" class="st16" d="M27.34,48.49c6.88-2.54,14.42-2.34,21.75-2.1l3.39,0.11c3.04,0,6.07,0.3,9.05,0.89
				c0.51,0.08,0.99,0.29,1.4,0.59c0.42,0.32,0.59,0.87,0.42,1.37c-0.18,0.31-0.44,0.56-0.76,0.72c-2.12,1.28-4.49,2.1-6.95,2.42
				c-1.43,0.15-2.87,0.22-4.31,0.2l-12.97,0.07c-1.2,0.04-2.39-0.02-3.58-0.16c-0.95-0.16-1.89-0.38-2.81-0.66
				c-1.34-0.36-2.65-0.82-3.92-1.39c-0.42-0.2-1.44-0.55-1.68-0.98C26.07,49.03,26.91,48.65,27.34,48.49z"/>
			<path id="Path_407" class="st17" d="M34.66,11.28c0.57,0.08,0.9,0.75,1.13,1.35c1.48,4.2,2.61,8.56,3.38,13l1.63,8.1
				c0.26,0.94,0.31,1.94,0.15,2.91c-0.3,1.2-1.21,2.06-1.79,3.13c-0.99,1.83-0.93,4.13-0.83,6.28c0,0.54,0.07,1.08,0.22,1.59
				c0.15,0.4,0.33,0.78,0.53,1.15c0.43,0.89,0.68,1.87,0.74,2.88c0.03,0.2,0,0.4-0.09,0.57c-0.14,0.17-0.32,0.28-0.52,0.31
				c-1.31,0.36-2.82,0.68-3.92-0.22c-0.83-0.83-1.31-2.01-1.33-3.26c-0.01-1.24-0.14-2.47-0.39-3.67c-0.22-0.72-0.56-1.39-1-1.96
				c-0.48-0.63-1.06-1.16-1.71-1.56c-1.06-0.43-2.06-1.06-2.95-1.86c-0.56-0.81-0.94-1.75-1.11-2.76l-3.52-14.7
				c-0.64-2.42-1.11-4.9-1.41-7.4c-0.07-0.41-0.04-0.84,0.1-1.23c0.35-0.55,0.88-0.9,1.47-0.96c3.6-0.94,7.21-1.77,10.85-2.49
				c0.13-0.04,0.27-0.04,0.41-0.01c0.15,0.07,0.28,0.18,0.37,0.33c0.53,0.71,0.9,1.55,1.09,2.45"/>
			<path id="Path_408" class="st17" d="M48.78,47.17c0.74-2.35,1.49-4.87,0.91-7.27c-0.52-2.12-2.01-3.83-2.44-5.97
				c-0.14-0.81-0.19-1.64-0.17-2.46c-0.24-4.53,0.56-9.04,2.32-13.13c0.67-2.35,1.79-4.51,3.28-6.33c1.96-1.84,4.44-2.86,7.01-2.87
				c1.55-0.16,3.1,0.12,4.52,0.82c0.4,0.19,0.74,0.5,0.99,0.9c0.17,0.36,0.27,0.74,0.3,1.14c0.19,1.47,0.27,2.96,0.23,4.45
				c0,0.37-0.04,0.74-0.11,1.1c-0.09,0.35-0.21,0.68-0.35,1.01c-1.82,4.56-2.66,9.52-4.29,14.16c-1.06,3.04-2.45,5.93-4.14,8.61
				c-1.34,1.66-2.19,3.75-2.44,5.97c-0.22,1.25-0.51,2.5-0.84,3.72c-0.1,0.53-0.34,1.01-0.69,1.39c-0.29,0.23-0.63,0.38-0.99,0.43
				c-0.95,0.2-4,0.46-4.5-0.9c-0.2-0.54,0.29-1.34,0.46-1.84C48.17,49.13,48.47,48.15,48.78,47.17z"/>
			<path id="Path_409" class="st15" d="M33.84,107.48c0.57,0.07,1.14,0.11,1.71,0.15c3.97,0.35,7.96,0.18,11.88-0.51
				c0.17-0.04,0.35-0.07,0.52-0.11c2.41,0.12,4.82,0.09,7.22-0.08c2.3-0.14,4.76-0.43,6.46-1.98c1.86-1.71,2.26-4.46,2.42-6.98
				c0.34-3.99,0.36-8,0.04-11.99v-30.6c0.01-0.05,0.02-0.1,0.03-0.15c0.17-0.78,0.15-1.58-0.06-2.35c-0.13-0.45-0.46-0.94-0.92-0.9
				c-0.03,0-0.05,0.01-0.07,0.01c0.01-0.09,0.01-0.18,0.02-0.27c-0.82,0.2-1.6,0.56-2.29,1.04c-0.71,0.28-1.45,0.44-2.21,0.49
				l-2.67,0.29c-1.07,0.12-2.15,0.24-3.22,0.29c-0.95,0.05-1.9,0.05-2.85,0.05h-0.3c-1-0.06-2-0.06-3-0.06
				c-1.2,0.01-2.39,0.03-3.59,0.06H35.8c-0.52-0.02-1.04,0.08-1.52,0.29l-2.15-0.24c-0.76-0.04-1.51-0.21-2.21-0.49
				c-0.7-0.48-1.48-0.84-2.3-1.04c0,0.09,0.01,0.18,0.02,0.27c-0.02-0.01-0.05-0.01-0.07-0.01c-0.47-0.05-0.79,0.45-0.92,0.9
				c-0.22,0.77-0.24,1.58-0.06,2.36c0.01,0.05,0.02,0.1,0.03,0.15v30.6c-0.32,3.99-0.3,8,0.04,11.99c0.16,2.52,0.55,5.27,2.42,6.98
				c1.79,1.64,4.4,1.82,6.7,2.08c2.89,0.33,5.8,0.39,8.7,0.45c0.92,0.02,1.85,0.04,2.77-0.02c1.61-0.1,3.21-0.45,4.82-0.42
				c1.25,0.14,2.52,0.14,3.77-0.01c0.47-0.12,0.92-0.27,1.37-0.46l1.71-0.68c0.58-0.23,1.25-0.56,1.35-1.19
				c0.13-0.81-0.8-1.36-1.59-1.6c-4.14-1.25-8.57-0.93-12.9-0.99c-1.42-0.09-2.85-0.02-4.26,0.22c-1.4,0.37-2.75,0.93-4,1.66
				c-1.25,0.66-2.61,1.43-3.06,2.77 M35.32,54.08v0.03l-0.17,0.01L35.32,54.08z"/>
			<g id="Group_957" transform="translate(4.555 42.615)">
				<g id="Group_2324">
					<g>
						<defs>
							<path id="SVGID_1_" d="M29.28,64.87c0.57,0.07,1.14,0.11,1.71,0.15c3.97,0.35,7.96,0.18,11.88-0.51
								c0.17-0.04,0.35-0.07,0.52-0.11c2.41,0.12,4.82,0.09,7.22-0.08c2.3-0.14,4.76-0.43,6.46-1.98c1.86-1.71,2.26-4.46,2.42-6.98
								c0.34-3.99,0.36-8,0.04-11.99v-30.6c0.01-0.05,0.02-0.1,0.03-0.15c0.17-0.78,0.15-1.58-0.06-2.35
								c-0.13-0.45-0.46-0.94-0.92-0.9c-0.03,0-0.05,0.01-0.07,0.01c0.01-0.09,0.01-0.18,0.02-0.27c-0.82,0.2-1.6,0.55-2.3,1.04
								c-0.71,0.28-1.45,0.44-2.21,0.49l-2.67,0.29c-1.07,0.12-2.15,0.24-3.22,0.29c-0.95,0.05-1.9,0.05-2.85,0.05h-0.3
								c-1-0.06-2-0.06-3-0.06c-1.2,0.01-2.39,0.03-3.59,0.06h-7.14c-0.52-0.02-1.04,0.08-1.52,0.29l-2.15-0.24
								c-0.76-0.04-1.51-0.21-2.21-0.49c-0.69-0.48-1.47-0.84-2.29-1.04c0,0.09,0.01,0.18,0.02,0.27c-0.02-0.01-0.05-0.01-0.07-0.01
								c-0.46-0.05-0.79,0.45-0.92,0.9c-0.21,0.77-0.23,1.58-0.06,2.36c0.01,0.05,0.02,0.1,0.03,0.15v30.6
								c-0.32,3.99-0.3,8,0.04,11.99c0.16,2.52,0.55,5.27,2.42,6.98c1.79,1.64,4.4,1.82,6.7,2.08c2.89,0.33,5.8,0.39,8.7,0.45
								c0.92,0.02,1.85,0.04,2.77-0.02c1.61-0.1,3.21-0.45,4.82-0.42c1.25,0.14,2.52,0.14,3.77-0.01c0.47-0.12,0.92-0.27,1.37-0.46
								l1.71-0.68c0.58-0.23,1.25-0.56,1.35-1.19c0.13-0.81-0.8-1.36-1.59-1.6c-4.14-1.25-8.57-0.93-12.9-0.99
								c-1.42-0.09-2.85-0.02-4.25,0.22c-1.4,0.37-2.75,0.93-4,1.66c-1.25,0.66-2.61,1.43-3.06,2.77 M30.76,11.47v0.03l-0.17,0.01
								L30.76,11.47z"/>
						</defs>
						<clipPath id="SVGID_00000106105200400432719690000006126809133668450223_">
							<use xlink:href="#SVGID_1_"  style="overflow:visible;"/>
						</clipPath>
						<g id="Group_2323" style="clip-path:url(#SVGID_00000106105200400432719690000006126809133668450223_);">
							<g id="Group_956" transform="translate(-11.752 5.102)">
								<g id="Group_955">
									<path id="Path_410" class="st19" d="M24.55,52.87c-0.05-0.24,1.2-1.71,1.38-1.99c0.5-0.78,0.97-1.58,1.41-2.4
										c1.73-3.24,2.97-6.73,3.66-10.33c0.18-0.92,0.31-1.84,0.42-2.76c-0.02-0.77,0.07-1.54,0.27-2.29
										c0.89,0.46,0.77,2.17,0.76,3.06c-0.04,1.38-0.18,2.76-0.41,4.12c-0.45,3.04-0.92,6.16-2.37,8.86
										c-0.68,1.38-1.59,2.64-2.69,3.73C26.39,53.38,24.83,54.1,24.55,52.87z"/>
									<path id="Path_411" class="st19" d="M31.12,31.69c-0.01-0.18-0.05-0.35-0.1-0.52c-0.78-2.54-2.74-4.54-5.26-5.38
										c-0.94-0.41-2.03-0.3-2.86,0.29c-0.26,0.27-0.48,0.58-0.64,0.92c-0.17,0.27-0.3,0.57-0.38,0.88
										c-0.03,1,0.41,1.96,1.18,2.59c0.53,0.69,1.23,1.24,2.03,1.58c0.51,0.13,1.04,0.19,1.57,0.18c1.04,0.02,2.81-0.18,3.66,0.54
										s0.15,1.61-0.42,2.3c-1.65,2-4.17,3.19-6.73,2.19c0.89-0.18,1.67-0.69,2.21-1.43c0.52-0.73,1.13-1.4,1.8-1.99
										c0.65-0.49,1.39-0.83,2.19-1.01c0.67-0.14,1.64-0.14,1.89-0.94s-0.69-1.87-1.06-2.5c-0.43-0.59-0.54-1.37-0.28-2.05
										l0.23-1.07c0.03-0.19,0.09-0.36,0.19-0.52c0.34-0.33,0.84-0.41,1.26-0.22c1,0.33,1.8,1.1,2.15,2.1
										c0.08,0.25,0.14,0.5,0.18,0.76c0.09,0.7,0.02,1.41-0.21,2.08c-0.11,0.36-0.31,0.69-0.57,0.96
										c-0.27,0.27-0.65,0.41-1.03,0.37c-0.1-0.02-0.2-0.04-0.3-0.04c-0.24,0.05-0.47,0.16-0.65,0.33
										c-0.21,0.13-0.52,0.19-0.67-0.01"/>
									<path id="Path_412" class="st19" d="M32.98,32.61l-0.4,1.04c-0.24,0.46-0.25,1-0.03,1.47l0.48,1.38
										c0.15,0.48,0.35,0.95,0.6,1.38c0.31,0.5,0.75,0.9,1.11,1.36c0.39,0.44,0.61,1.02,0.59,1.61c0.51-1.32,0.94-2.67,1.29-4.05
										c0.07-0.24,0.12-0.5,0.13-0.75c0-0.41-0.09-0.81-0.26-1.18c-0.31-0.75-0.77-1.42-1.35-1.99c-0.27-0.28-0.61-0.5-0.98-0.63
										c-0.38-0.13-0.8-0.06-1.11,0.19c-0.39,0.34-0.42,0.93-0.74,1.34"/>
									<path id="Path_413" class="st19" d="M34.71,23.5c0.15-0.12,0.3-0.23,0.45-0.34l0.58,2.55c0.13,0.5,0.22,1.02,0.26,1.54
										c0.01,0.61-0.05,1.21-0.19,1.8c-0.12,0.88-0.45,1.72-0.98,2.45c-0.55,0.73-1.5,1.02-2.37,0.73
										c-0.3-0.97-0.33-2.01-0.09-2.99C32.74,27.32,33.13,24.81,34.71,23.5z"/>
									<path id="Path_414" class="st19" d="M36.81,30.8c-0.36,0.58-0.81,1.1-1.33,1.53c-0.88,0.67-2.23,1.1-2.12-0.44
										c0.2-0.94,0.6-1.82,1.16-2.6c0.94-1.5,2.42-2.59,4.13-3.05C38.4,27.88,37.77,29.44,36.81,30.8z"/>
									<path id="Path_415" class="st19" d="M32.02,17.84c0.94-0.78,1.8-1.65,2.57-2.6c1.03-1.23,1.65-2.76,1.75-4.36
										c-0.02-0.38,0.01-0.76,0.1-1.13c0.1-0.38,0.44-0.64,0.83-0.65c0.64,0.06,0.78,0.92,0.71,1.56
										c-0.08,0.7-0.18,1.39-0.33,2.07c-0.09,0.51-0.25,1-0.48,1.45c-0.31,0.51-0.7,0.97-1.15,1.36l-3.87,3.73
										c-1.02,0.98-2.1,2.1-2.19,3.51c-0.1,1.57,1.07,3.15,0.51,4.62c-0.23,0.59-1.15-1.16-1.17-1.32
										c-0.1-0.63-0.2-1.21-0.33-1.85c-0.35-1.54-0.01-3.16,0.94-4.42c0.38-0.45,0.8-0.87,1.26-1.24c1.09-0.94,1-1.75,0.27-3
										c-0.04-0.09-0.11-0.16-0.2-0.2c-0.12-0.02-0.24,0.01-0.34,0.07c-0.42,0.12-0.87-0.01-1.15-0.34
										c-0.27-0.33-0.43-0.74-0.47-1.16c-0.15-1.41,0.36-2.81,1.39-3.8c0.22-0.25,0.52-0.42,0.84-0.49
										c0.33-0.03,0.66,0.06,0.94,0.25c0.67,0.43,1.12,1.12,1.23,1.91c0.05,0.62-0.02,1.25-0.2,1.84
										c-0.11,0.63-0.38,1.21-0.78,1.7c-0.43,0.49-1.15,0.61-1.72,0.28"/>
									<path id="Path_416" class="st20" d="M29.32,33.29c-0.05,0.22-0.05,0.44,0,0.66c0.12,0.26,0.32,0.46,0.58,0.58
										c0.47,0.25,0.99,0.41,1.52,0.45c0.1,0.02,0.21,0,0.3-0.04c0.09-0.07,0.17-0.16,0.23-0.26c0.37-0.51,1.22-0.58,1.45-1.21
										s-0.42-1.64-0.93-2C30.99,30.43,29.56,31.9,29.32,33.29z"/>
									<path id="Path_417" class="st19" d="M28.06,16.58c-0.1-0.25-0.22-0.49-0.36-0.71c-0.4-0.58-1.06-0.94-1.77-0.97
										c-0.09-0.01-0.17,0-0.26,0.03c-0.1,0.05-0.18,0.12-0.25,0.21c-0.75,0.88-1.09,2.05-0.92,3.2c0.21,1.24,1.9,3.42,3.37,2.43
										C29.1,19.95,28.5,17.65,28.06,16.58z"/>
									<path id="Path_418" class="st19" d="M36.53,17.76c0.38,0.08,0.76,0.13,1.14,0.15c0.52-0.02,1.08-0.26,1.55-0.03
										c0.1,0.04,0.18,0.12,0.23,0.22c0.03,0.1,0.02,0.21-0.02,0.31c-0.29,1.02-0.92,1.91-1.78,2.52
										c-0.16,0.12-0.33,0.21-0.51,0.29c-0.34,0.11-0.69,0.15-1.05,0.14c-0.55,0.03-1.09-0.03-1.62-0.18
										c-0.86-0.23-1.37-1.11-1.15-1.97c0.05-0.19,0.14-0.38,0.26-0.54C34.36,17.89,35.46,17.55,36.53,17.76z"/>
									<path id="Path_419" class="st19" d="M30.93,47.12c0.33-0.34,0.69-0.64,1.08-0.91c0.89-0.52,1.8-0.98,2.74-1.4
										c0.95-0.42,1.7-1.18,2.13-2.12c0.22,1.95-0.28,3.92-1.4,5.53c-0.27,0.39-0.59,0.76-0.93,1.09
										c-1.29,1.36-3.19,1.97-5.03,1.62c-0.28-0.05-0.54-0.19-0.74-0.4C28.02,49.58,30.31,47.73,30.93,47.12z"/>
									<path id="Path_420" class="st19" d="M37.06,35.82c0,0.26-0.01,0.52-0.04,0.78c-0.1,0.89-0.3,1.77-0.6,2.62
										c-0.06,0.2-0.15,0.39-0.26,0.56c-0.07,0.1-0.16,0.19-0.23,0.3c-0.2,0.3-0.25,0.72-0.55,0.91
										c-0.04,0.03-0.09,0.04-0.13,0.02c-0.03-0.02-0.05-0.06-0.05-0.1c-0.07-0.32-0.09-0.64-0.15-0.97
										c-0.03-0.2-0.08-0.4-0.12-0.6l-0.14-0.62c-0.09-0.38-0.17-0.76-0.3-1.12c-0.11-0.35-0.26-0.68-0.36-1.03
										c-0.33-1.21-0.28-2.5,0.17-3.68c0.37-0.96,1.99,0.81,2.26,1.24C36.86,34.63,37.04,35.22,37.06,35.82z"/>
									<path id="Path_421" class="st19" d="M31.28,16.18c0.18,0.62,0.13,1.29-0.14,1.88c-0.07,0.23-0.12,0.52,0.05,0.68
										c0.18,0.14,0.43,0.12,0.59-0.04c0.15-0.16,0.26-0.35,0.31-0.56c0.09-0.28,0.18-0.55,0.25-0.84c0.13-0.4,0.17-0.82,0.1-1.24
										c-0.17-0.65-0.75-1.1-1.41-1.1C29.81,15,31.09,15.77,31.28,16.18z"/>
									<path id="Path_422" class="st19" d="M28.1,20.82c0.33,0.24,0.56,0.6,0.66,0.99c0.05,0.14,0.14,0.31,0.29,0.32
										c0.14,0,0.26-0.11,0.28-0.25c0.01-0.14-0.01-0.27-0.06-0.4c-0.06-0.17-0.13-0.34-0.2-0.51c-0.09-0.25-0.23-0.48-0.43-0.66
										c-0.33-0.26-0.8-0.26-1.13,0C26.91,20.79,27.85,20.68,28.1,20.82z"/>
									<path id="Path_423" class="st19" d="M33.54,19.53c-0.4-0.09-0.76-0.31-1.01-0.64c-0.11-0.11-0.25-0.22-0.4-0.18
										c-0.13,0.06-0.2,0.2-0.16,0.34c0.04,0.13,0.12,0.25,0.22,0.34c0.13,0.13,0.26,0.26,0.39,0.39
										c0.18,0.19,0.41,0.34,0.66,0.42c0.41,0.1,0.83-0.09,1.03-0.46C34.64,19.07,33.82,19.55,33.54,19.53z"/>
								</g>
							</g>
						</g>
					</g>
				</g>
			</g>
			<path id="Path_425" class="st15" d="M49.66,108.41c1.45-0.04,2.89-0.2,4.33-0.38c0.29-0.03,0.57-0.08,0.86-0.14
				c0.35-0.09,0.7-0.22,1.03-0.38c0.07-0.02,0.13-0.07,0.17-0.13c0.09-0.16-0.1-0.33-0.26-0.4c-0.58-0.25-1.2-0.42-1.83-0.51
				c-2.39-0.33-4.8-0.43-7.2-0.29c-0.41-0.05-0.82,0.09-1.1,0.39c-0.19,0.42-0.26,0.89-0.19,1.34c0.07,0.44,0.56,0.37,0.92,0.4
				C47.47,108.41,48.56,108.41,49.66,108.41z"/>
			<g id="Group_958" transform="translate(21.506 53.348)">
				<path id="Path_426" class="st19" d="M30.87,54.66c0.2-0.79,0.48-1.55,0.84-2.28c0.29-0.88,0.54-1.77,0.76-2.67
					c0.86-3.57,1.18-7.26,0.95-10.92c-0.06-0.93-0.16-1.86-0.29-2.78c-0.21-0.74-0.32-1.51-0.31-2.28c0.97,0.22,1.29,1.91,1.51,2.77
					c0.31,1.35,0.52,2.72,0.64,4.09c0.33,3.05,0.66,6.19-0.07,9.17c-0.31,1.51-0.88,2.96-1.67,4.28
					C32.78,54.7,31.45,55.79,30.87,54.66z"/>
				<path id="Path_427" class="st19" d="M31.92,32.52c-0.06-0.17-0.14-0.33-0.23-0.48c-1.39-2.26-3.8-3.71-6.45-3.88
					c-1.01-0.16-2.04,0.22-2.7,1c-0.19,0.33-0.32,0.68-0.39,1.05c-0.09,0.31-0.14,0.63-0.14,0.95c0.05,0.99,0.97,1.67,1.79,2.21
					c0.69,0.54,1.5,0.89,2.36,1.02c0.53,0,1.06-0.07,1.56-0.22c1.01-0.24,2.67-0.89,3.68-0.4s0.55,1.52,0.17,2.33
					c-1.1,2.35-3.23,4.13-5.96,3.81c0.81-0.4,1.45-1.09,1.78-1.94c0.32-0.84,0.74-1.64,1.25-2.38c0.51-0.63,1.14-1.15,1.86-1.52
					c0.61-0.31,1.56-0.54,1.59-1.38s-1.14-1.64-1.65-2.16c-0.57-0.47-0.87-1.19-0.79-1.92l-0.05-1.09c-0.02-0.19,0-0.38,0.06-0.56
					c0.24-0.4,0.71-0.61,1.17-0.53c1.05,0.07,2.02,0.62,2.61,1.49c0.14,0.22,0.26,0.45,0.36,0.69c0.26,0.65,0.37,1.36,0.31,2.07
					c-0.02,0.38-0.12,0.75-0.31,1.07c-0.19,0.33-0.52,0.56-0.9,0.62c-0.1,0-0.2,0.01-0.3,0.03c-0.24,0.07-0.38,0.3-0.55,0.48
					s-0.46,0.32-0.65,0.16"/>
				<path id="Path_428" class="st19" d="M33.94,32.95l-0.12,1.11c-0.12,0.5,0.01,1.04,0.34,1.43l0.81,1.21
					c0.27,0.43,0.58,0.83,0.93,1.19c0.43,0.4,0.95,0.68,1.42,1.04c0.49,0.33,0.84,0.83,0.98,1.41c0.16-1.41,0.24-2.82,0.23-4.24
					c0.01-0.26-0.01-0.51-0.06-0.76c-0.1-0.39-0.29-0.76-0.54-1.08c-0.49-0.65-1.11-1.19-1.81-1.58c-0.33-0.21-0.71-0.33-1.11-0.36
					c-0.4-0.03-0.79,0.15-1.03,0.46c-0.29,0.43-0.18,1.01-0.38,1.48"/>
				<path id="Path_429" class="st19" d="M33.33,23.69c0.11-0.15,0.23-0.3,0.35-0.44l1.2,2.32c0.25,0.46,0.47,0.93,0.63,1.43
					c0.16,0.58,0.25,1.18,0.27,1.79c0.11,0.88-0.01,1.78-0.33,2.61c-0.35,0.84-1.2,1.37-2.11,1.31c-0.54-0.86-0.83-1.86-0.84-2.88
					C32.38,27.89,32.13,25.35,33.33,23.69z"/>
				<path id="Path_430" class="st19" d="M37.2,30.23c-0.2,0.65-0.5,1.27-0.91,1.82c-0.68,0.88-1.88,1.62-2.17,0.11
					c-0.04-0.96,0.12-1.91,0.47-2.81c0.54-1.69,1.69-3.11,3.23-3.99C38,27,37.78,28.67,37.2,30.23z"/>
				<path id="Path_431" class="st19" d="M29.3,18.89c0.71-0.99,1.32-2.05,1.83-3.16c0.69-1.45,0.9-3.08,0.6-4.66
					c-0.12-0.36-0.18-0.74-0.18-1.12c0.01-0.39,0.27-0.73,0.64-0.84c0.63-0.11,0.98,0.7,1.08,1.33c0.1,0.69,0.17,1.39,0.2,2.09
					c0.04,0.51,0.01,1.03-0.09,1.53c-0.18,0.57-0.44,1.11-0.77,1.61l-2.81,4.58c-0.74,1.21-1.51,2.56-1.24,3.95
					c0.29,1.54,1.82,2.78,1.65,4.35c-0.07,0.63-1.4-0.83-1.47-0.98c-0.26-0.59-0.5-1.13-0.78-1.71c-0.73-1.4-0.8-3.05-0.2-4.52
					c0.25-0.53,0.56-1.04,0.91-1.52c0.82-1.19,0.53-1.94-0.49-2.97c-0.06-0.08-0.15-0.13-0.24-0.15c-0.12-0.01-0.22,0.08-0.31,0.15
					c-0.37,0.22-0.84,0.21-1.2-0.04c-0.35-0.25-0.61-0.61-0.75-1.01c-0.5-1.33-0.35-2.81,0.39-4.02c0.15-0.3,0.39-0.54,0.69-0.69
					c0.31-0.11,0.66-0.11,0.97,0.01c0.75,0.25,1.36,0.81,1.67,1.54c0.21,0.59,0.3,1.21,0.27,1.83c0.05,0.63-0.06,1.27-0.33,1.84
					c-0.3,0.58-0.96,0.88-1.59,0.7"/>
				<path id="Path_432" class="st20" d="M30.57,34.52c0,0.22,0.06,0.44,0.16,0.64c0.18,0.22,0.43,0.37,0.71,0.41
					c0.52,0.13,1.06,0.15,1.58,0.05c0.1-0.01,0.2-0.05,0.28-0.11c0.07-0.09,0.13-0.2,0.16-0.31c0.23-0.59,1.04-0.86,1.09-1.53
					s-0.82-1.48-1.41-1.7C31.47,31.33,30.45,33.11,30.57,34.52z"/>
				<path id="Path_433" class="st19" d="M25.15,18.67c-0.15-0.22-0.33-0.42-0.52-0.6c-0.54-0.46-1.26-0.65-1.95-0.49
					c-0.09,0.02-0.17,0.05-0.24,0.1c-0.08,0.07-0.15,0.16-0.19,0.26c-0.51,1.04-0.54,2.26-0.09,3.33c0.52,1.15,2.7,2.83,3.87,1.5
					C27.01,21.66,25.85,19.58,25.15,18.67z"/>
				<path id="Path_434" class="st19" d="M33.65,17.67c0.38-0.01,0.77-0.06,1.14-0.14c0.5-0.15,0.98-0.52,1.5-0.42
					c0.11,0.01,0.2,0.07,0.27,0.15c0.05,0.09,0.07,0.2,0.06,0.31c-0.03,1.06-0.41,2.07-1.09,2.89c-0.12,0.15-0.27,0.29-0.42,0.41
					c-0.3,0.19-0.63,0.33-0.98,0.4c-0.52,0.17-1.07,0.25-1.61,0.23c-0.89-0.01-1.6-0.73-1.6-1.62c0-0.2,0.04-0.4,0.11-0.59
					C31.58,18.36,32.56,17.75,33.65,17.67z"/>
				<path id="Path_435" class="st19" d="M35.6,47.5c0.24-0.41,0.51-0.79,0.82-1.15c0.73-0.72,1.5-1.4,2.3-2.04
					c0.81-0.65,1.35-1.57,1.53-2.59c0.7,1.84,0.71,3.86,0.03,5.71c-0.17,0.45-0.38,0.88-0.62,1.29c-0.91,1.64-2.59,2.7-4.46,2.83
					c-0.29,0.02-0.57-0.05-0.82-0.2C33.4,50.61,35.16,48.25,35.6,47.5z"/>
				<path id="Path_436" class="st19" d="M38.7,35.03c0.07,0.25,0.12,0.5,0.15,0.76c0.12,0.89,0.15,1.79,0.07,2.69
					c-0.01,0.21-0.05,0.41-0.11,0.61c-0.04,0.12-0.1,0.23-0.14,0.35c-0.11,0.34-0.06,0.76-0.31,1.02c-0.03,0.04-0.07,0.06-0.12,0.05
					c-0.04-0.02-0.06-0.05-0.08-0.08c-0.15-0.29-0.25-0.6-0.39-0.9c-0.08-0.19-0.18-0.37-0.27-0.55l-0.29-0.56
					c-0.18-0.34-0.36-0.69-0.57-1.01c-0.2-0.31-0.42-0.6-0.61-0.91c-0.63-1.09-0.9-2.36-0.76-3.61c0.12-1.02,2.13,0.28,2.5,0.64
					C38.2,33.92,38.52,34.45,38.7,35.03z"/>
				<path id="Path_437" class="st19" d="M28.16,17.47c0.33,0.56,0.45,1.22,0.34,1.85c-0.01,0.24,0.01,0.53,0.22,0.65
					c0.21,0.09,0.45,0.01,0.56-0.18c0.11-0.19,0.16-0.41,0.16-0.62c0.02-0.29,0.03-0.58,0.03-0.87c0.03-0.42-0.04-0.84-0.21-1.23
					c-0.32-0.58-1-0.87-1.64-0.71C26.45,16.69,27.89,17.12,28.16,17.47z"/>
				<path id="Path_438" class="st19" d="M26.26,22.76c0.38,0.15,0.69,0.44,0.89,0.8c0.09,0.12,0.21,0.26,0.36,0.24
					c0.14-0.04,0.23-0.17,0.21-0.31c-0.02-0.14-0.07-0.27-0.16-0.38c-0.1-0.15-0.21-0.3-0.32-0.45c-0.15-0.22-0.35-0.4-0.58-0.53
					c-0.39-0.17-0.84-0.05-1.09,0.28C25.1,23.03,25.98,22.69,26.26,22.76z"/>
				<path id="Path_439" class="st19" d="M31.2,20.14c-0.41,0.02-0.81-0.11-1.13-0.36c-0.13-0.08-0.3-0.15-0.43-0.07
					c-0.11,0.09-0.14,0.25-0.07,0.37c0.07,0.12,0.18,0.21,0.3,0.28c0.16,0.1,0.31,0.19,0.48,0.28c0.22,0.14,0.48,0.23,0.75,0.25
					c0.42-0.01,0.78-0.29,0.88-0.7C32.14,19.43,31.48,20.09,31.2,20.14z"/>
			</g>
		</g>
	</g>
</g>
<g id="Group_2325" transform="translate(0 76.408)">
	<path id="Path_860" class="st13" d="M29.1,9.2c4.27-0.54,8.52,1.19,11.19,4.57c0.05,0.8,0.41,1.54,1.02,2.06
		c1.8,1.77,3.03,4.04,3.53,6.52c0.28,2.49,3.56,5.32,4.93,5.67s5.47,1.93,5.9,4.7l-0.15,0.49c0,0,5.79-0.5,8.99-1.9
		c0,0,2.69-1.08,1.42,2.08c0,0,0.19,0.08-2.73,1.44c-2.24,1.09-4.54,2.05-6.89,2.88c-2.53,0.88-5.69-0.45-7.71-1.45
		s-6.07-0.62-7.66-1.8s-7.28-9-8.96-11.04s-7.94,0.28-7.94,0.28l-2.19-12.49L29.1,9.2z"/>
	<path id="Path_861" class="st21" d="M55.55,33.2c0,0-2.05,0.45-5.72-1.09s-3.68-0.55-6.68-2.69"/>
	<path id="Path_862" class="st13" d="M64.98,33.1l-0.05-0.28c-0.09-0.49,5.41,0.8,1.41,1.62c-1.44,0.3-6.12,1.43-6.12,1.43
		L64.98,33.1z"/>
</g>
</svg>
