<svg width="20" height="20" class="icon-20" viewBox="0 0 16 16" fill="none" xmlns="http://www.w3.org/2000/svg">
    <path fill-rule="evenodd" clip-rule="evenodd" d="M10.1615 3.15833C10.1615 4.639 11.3636 5.83931 12.8464 5.83931C13.0097 5.83851 13.1726 5.82283 13.333 5.79248V11.1076C13.333 13.3437 12.014 14.6666 9.77463 14.6666H4.89725C2.65201 14.6666 1.33301 13.3437 1.33301 11.1076V6.23736C1.33301 4.00126 2.65201 2.66663 4.89725 2.66663H10.2084C10.1769 2.82863 10.1612 2.9933 10.1615 3.15833ZM8.76632 9.93102L10.6716 7.47248V7.46077C10.8347 7.2416 10.793 6.93255 10.5778 6.76419C10.4736 6.68375 10.3411 6.64893 10.2108 6.66768C10.0804 6.68644 9.96324 6.75716 9.88601 6.8637L8.27976 8.93004L6.45074 7.49004C6.34632 7.40869 6.21348 7.37277 6.08221 7.39039C5.95095 7.40802 5.83233 7.47769 5.75313 7.5837L3.78342 10.1242C3.71419 10.2105 3.67691 10.318 3.6779 10.4286C3.66647 10.6521 3.80759 10.855 4.02126 10.9225C4.23493 10.9899 4.46726 10.9048 4.58655 10.7154L6.23384 8.58467L8.06286 10.0188C8.16689 10.1027 8.3006 10.1407 8.43327 10.1242C8.56594 10.1076 8.68617 10.0379 8.76632 9.93102Z" fill="#fff"></path>
<ellipse opacity="0.4" cx="12.9997" cy="2.99998" rx="1.66667" ry="1.66667" fill="#fff"></ellipse>
</svg>