<svg class="icon-20" width="20" height="20" viewBox="0 0 14 14" fill="none" xmlns="http://www.w3.org/2000/svg">
    <path opacity="0.4" d="M10.1167 0.333496H3.88856C1.61893 0.333496 0.333008 1.61942 0.333008 3.88905V10.1113C0.333008 12.3809 1.61893 13.6668 3.88856 13.6668H10.1167C12.3863 13.6668 13.6663 12.3809 13.6663 10.1113V3.88905C13.6663 1.61942 12.3863 0.333496 10.1167 0.333496Z" fill="#fff"></path>
    <path d="M3.91244 5.24609C3.61022 5.24609 3.36133 5.49498 3.36133 5.80313V10.3839C3.36133 10.6861 3.61022 10.935 3.91244 10.935C4.22059 10.935 4.46948 10.6861 4.46948 10.3839V5.80313C4.46948 5.49498 4.22059 5.24609 3.91244 5.24609Z" fill="#fff"></path>
    <path d="M7.02279 3.05957C6.72057 3.05957 6.47168 3.30846 6.47168 3.61661V10.384C6.47168 10.6862 6.72057 10.9351 7.02279 10.9351C7.33094 10.9351 7.57983 10.6862 7.57983 10.384V3.61661C7.57983 3.30846 7.33094 3.05957 7.02279 3.05957Z" fill="#fff"></path>
    <path d="M10.0932 7.66406C9.78502 7.66406 9.53613 7.91295 9.53613 8.2211V10.3841C9.53613 10.6863 9.78502 10.9352 10.0872 10.9352C10.3954 10.9352 10.6443 10.6863 10.6443 10.3841V8.2211C10.6443 7.91295 10.3954 7.66406 10.0932 7.66406Z" fill="#fff"></path>
</svg>