<svg width="20" class="icon-20" viewBox="0 0 14 14" fill="none" xmlns="http://www.w3.org/2000/svg">
    <path opacity="0.4" d="M13.6663 6.99992C13.6663 10.6826 10.6817 13.6666 6.99967 13.6666C3.31767 13.6666 0.333008 10.6826 0.333008 6.99992C0.333008 3.31859 3.31767 0.333252 6.99967 0.333252C10.6817 0.333252 13.6663 3.31859 13.6663 6.99992Z" fill="#fff"></path>
    <path fill-rule="evenodd" clip-rule="evenodd" d="M4.01351 6.20239C3.57284 6.20239 3.21484 6.56039 3.21484 6.99973C3.21484 7.43973 3.57284 7.79839 4.01351 7.79839C4.45418 7.79839 4.81218 7.43973 4.81218 6.99973C4.81218 6.56039 4.45418 6.20239 4.01351 6.20239ZM6.99958 6.20239C6.55891 6.20239 6.20091 6.56039 6.20091 6.99973C6.20091 7.43973 6.55891 7.79839 6.99958 7.79839C7.44024 7.79839 7.79824 7.43973 7.79824 6.99973C7.79824 6.56039 7.44024 6.20239 6.99958 6.20239ZM9.18718 6.99973C9.18718 6.56039 9.54518 6.20239 9.98584 6.20239C10.4265 6.20239 10.7845 6.56039 10.7845 6.99973C10.7845 7.43973 10.4265 7.79839 9.98584 7.79839C9.54518 7.79839 9.18718 7.43973 9.18718 6.99973Z" fill="#fff"></path>
</svg>