<svg width="20" class="icon-20" viewBox="0 0 14 13" fill="none" xmlns="http://www.w3.org/2000/svg">
    <path opacity="0.4" d="M6.85044 12.5583C5.32841 11.6182 3.91355 10.5097 2.63172 9.25306C1.7268 8.35584 1.0357 7.26031 0.611238 6.05018C-0.147183 3.69015 0.735667 0.992986 3.20054 0.192264C4.50154 -0.216313 5.9165 0.034503 7.00449 0.866556C8.09289 0.0354335 9.50738 -0.215301 10.8085 0.192264C13.2733 0.992986 14.1621 3.69015 13.4037 6.05018C12.9827 7.25917 12.2957 8.3546 11.395 9.25306C10.1121 10.5083 8.69734 11.6167 7.17632 12.5583L7.01042 12.6667L6.85044 12.5583Z" fill="#fff"></path>
    <path d="M7.00694 12.6666L6.85033 12.5583C5.32643 11.6183 3.90959 10.5098 2.62569 9.25304C1.71648 8.35707 1.02126 7.26144 0.593354 6.05016C-0.159142 3.69013 0.723708 0.992966 3.18858 0.192245C4.48958 -0.216332 5.9232 0.0346753 7.00694 0.873695V12.6666Z" fill="#fff"></path>
    <path d="M11.153 4.66615C11.0191 4.65753 10.8943 4.5906 10.8081 4.48104C10.7218 4.37149 10.6815 4.22893 10.6966 4.08677C10.7111 3.61854 10.4447 3.19234 10.0338 3.02651C9.7733 2.95539 9.61553 2.67324 9.6807 2.39499C9.74255 2.12121 9.99891 1.95098 10.2566 2.0126C10.2891 2.018 10.3204 2.02979 10.3489 2.04737C11.1727 2.36439 11.7061 3.2176 11.6637 4.1505C11.6623 4.2919 11.6072 4.42665 11.5109 4.52387C11.4146 4.62109 11.2854 4.67244 11.153 4.66615Z" fill="#fff"></path>
</svg>